{
.appVersion = "895";
copyright = Tamirp.com;
customParameters = (
{
name = vendorID;
value = "TMR ";
},
{
name = panose;
value = (
2,
0,
0,
0,
0,
0,
0,
0,
0,
0
);
},
{
name = unicodeRanges;
value = (
11
);
},
{
name = codePageRanges;
value = (
1255
);
},
{
name = glyphOrder;
value = (
.notdef,
NULL,
space,
uni000D,
exclam,
quotedbl,
numbersign,
dollar,
percent,
ampersand,
quotesingle,
parenleft,
parenright,
asterisk,
plus,
comma,
hyphen,
period,
slash,
zero,
one,
two,
three,
four,
five,
six,
seven,
eight,
nine,
colon,
semicolon,
less,
equal,
greater,
question,
at,
A,
B,
C,
D,
E,
F,
G,
H,
I,
J,
K,
L,
M,
N,
O,
P,
Q,
R,
S,
T,
U,
V,
W,
X,
Y,
Z,
bracketleft,
backslash,
bracketright,
asciicircum,
underscore,
grave,
a,
b,
c,
d,
e,
f,
g,
h,
i,
j,
k,
l,
m,
n,
o,
p,
q,
r,
s,
t,
u,
v,
w,
x,
y,
z,
braceleft,
bar,
braceright,
asciitilde,
exclamdown,
cent,
sterling,
currency,
yen,
brokenbar,
section,
dieresis,
copyright,
ordfeminine,
guillemotleft,
logicalnot,
registered,
degree,
plusminus,
uni00B2,
uni00B3,
acute,
paragraph,
cedilla,
uni00B9,
ordmasculine,
guillemotright,
onequarter,
onehalf,
threequarters,
questiondown,
multiply,
divide,
florin,
macron,
endash,
quoteleft,
quoteright,
quotesinglbase,
quotedblleft,
quotedblright,
quotedblbase,
dagger,
daggerdbl,
bullet,
ellipsis,
perthousand,
guilsinglleft,
guilsinglright,
trademark,
periodcentered,
lozenge,
g146,
g147,
glyph95,
glyph96,
glyph93,
glyph94,
ch270,
ch271,
ch272,
ch273,
ch274,
ch275,
ch276,
ch277,
glyph70,
glyph71,
glyph64,
glyph65,
glyph52,
glyph53,
ch278,
ch279,
ch280,
ch291,
ch282,
ch287,
ch290,
ch289,
ch288,
ch297,
ch292,
ch295,
ch296,
ch283,
ch298,
ch281,
glyph87,
glyph88,
ch302,
glyph89,
glyph91,
glyph92,
ch286,
ch301,
ch284,
ch309,
glyph72,
glyph73,
glyph146,
glyph147,
ch308,
ch293,
ch310,
ch299,
ch314,
ch305,
ch294,
ch325,
ch320,
ch323,
ch318,
ch321,
ch324,
ch331,
ch304,
ch285,
ch316,
ch311,
ch330,
ch315,
ch334,
ch317,
ch332,
ch319,
glyph4,
glyph5,
uni2010,
uni2421,
uni00A0,
uni00AD,
uni00B5,
uni05B0,

glyphs = (
{
glyphname = colon;
lastChange = "2017-08-06 14:35:53 +0000";
layers = (
{
layerId = "D5E6A06D-BC18-4D21-A29C-804CFD6A7B96";
paths = (
{
closed = 1;
nodes = (
"62 1298 OFFCURVE",
"51 1287 OFFCURVE",
"51 1272 CURVE SMOOTH",
"51 974 LINE SMOOTH",
"51 959 OFFCURVE",
"62 948 OFFCURVE",
"77 948 CURVE SMOOTH",
"375 948 LINE SMOOTH",
"390 948 OFFCURVE",
"401 959 OFFCURVE",
"401 974 CURVE SMOOTH",
"401 1272 LINE SMOOTH",
"401 1287 OFFCURVE",
"390 1298 OFFCURVE",
"375 1298 CURVE SMOOTH",
"77 1298 LINE SMOOTH"
);
},
{
closed = 1;
nodes = (
"62 550 OFFCURVE",
"51 539 OFFCURVE",
"51 524 CURVE SMOOTH",
"51 226 LINE SMOOTH",
"51 211 OFFCURVE",
"62 200 OFFCURVE",
"77 200 CURVE SMOOTH",
"375 200 LINE SMOOTH",
"390 200 OFFCURVE",
"401 211 OFFCURVE",
"401 226 CURVE SMOOTH",
"401 524 LINE SMOOTH",
"401 539 OFFCURVE",
"390 550 OFFCURVE",
"375 550 CURVE SMOOTH",
"77 550 LINE SMOOTH"
);
}
);
width = 462;
}
);
note = colon;
unicode = 003A;
},
{
glyphname = semicolon;
lastChange = "2017-08-06 14:35:53 +0000";
layers = (
{
layerId = "D5E6A06D-BC18-4D21-A29C-804CFD6A7B96";
paths = (
{
closed = 1;
nodes = (
"98 1475 OFFCURVE",
"80 1458 OFFCURVE",
"80 1435 CURVE SMOOTH",
"80 1141 LINE",
"79 809 LINE SMOOTH",
"79 736 OFFCURVE",
"97 679 OFFCURVE",
"134 636 CURVE SMOOTH",
"171 591 OFFCURVE",
"227 565 OFFCURVE",
"299 564 CURVE SMOOTH",
"384 563 LINE SMOOTH",
"404 563 OFFCURVE",
"418 563 OFFCURVE",
"427 564 CURVE",
"446 564 OFFCURVE",
"461 580 OFFCURVE",
"461 603 CURVE SMOOTH",
"461 1101 LINE",
"650 1101 LINE",
"650 -229 LINE SMOOTH",
"650 -250 OFFCURVE",
"666 -268 OFFCURVE",
"689 -268 CURVE SMOOTH",
"1031 -268 LINE SMOOTH",
"1054 -268 OFFCURVE",
"1071 -250 OFFCURVE",
"1071 -229 CURVE SMOOTH",
"1071 1435 LINE SMOOTH",
"1071 1458 OFFCURVE",
"1054 1475 OFFCURVE",
"1031 1475 CURVE SMOOTH",
"119 1475 LINE SMOOTH"
);
}
);
width = 1144;
}
);
note = semicolon;
unicode = 003B;
},
{
glyphname = less;
lastChange = "2017-08-06 14:35:53 +0000";
layers = (
{
layerId = "D5E6A06D-BC18-4D21-A29C-804CFD6A7B96";
paths = (
{
closed = 1;
nodes = (
"1133 1470 OFFCURVE",
"1122 1475 OFFCURVE",
"1109 1475 CURVE SMOOTH",
"104 1475 LINE SMOOTH",
"85 1475 OFFCURVE",
"68 1456 OFFCURVE",
"68 1437 CURVE SMOOTH",
"68 1133 LINE",
"187 1133 LINE",
"94 962 LINE",
"239 433 LINE",
"142 433 LINE SMOOTH",
"119 433 OFFCURVE",
"102 417 OFFCURVE",
"102 394 CURVE SMOOTH",
"102 40 LINE SMOOTH",
"102 19 OFFCURVE",
"119 1 OFFCURVE",
"142 1 CURVE SMOOTH",
"643 1 LINE",
"643 445 LINE",
"511 962 LINE",
"604 1112 LINE",
"736 1112 LINE",
"736 40 LINE SMOOTH",
"736 19 OFFCURVE",
"754 1 OFFCURVE",
"775 1 CURVE SMOOTH",
"1117 1 LINE SMOOTH",
"1138 1 OFFCURVE",
"1156 19 OFFCURVE",
"1156 40 CURVE SMOOTH",
"1156 1428 LINE SMOOTH",
"1156 1441 OFFCURVE",
"1151 1452 OFFCURVE",
"1142 1461 CURVE SMOOTH"
);
}
);
width = 1226;
}
);
note = less;
unicode = 003C;
},
{
glyphname = equal;
lastChange = "2017-08-06 14:35:53 +0000";
layers = (
{
layerId = "D5E6A06D-BC18-4D21-A29C-804CFD6A7B96";
paths = (
{
closed = 1;
nodes = (
"70 1098 LINE",
"70 795 LINE",
"1106 795 LINE",
"1106 1098 LINE"
);
},
{
closed = 1;
nodes = (
"70 600 LINE",
"70 303 LINE",
"1106 303 LINE",
"1106 600 LINE"
);
}
);
width = 1176;
}
);
note = equal;
unicode = 003D;
},
{
glyphname = greater;
lastChange = "2017-08-06 14:35:53 +0000";
layers = (
{
layerId = "D5E6A06D-BC18-4D21-A29C-804CFD6A7B96";
paths = (
{
closed = 1;
nodes = (
"618 1476 OFFCURVE",
"609 1468 OFFCURVE",
"609 1460 CURVE SMOOTH",
"609 1125 LINE",
"701 1125 LINE",
"701 818 LINE SMOOTH",
"701 779 OFFCURVE",
"701 762 OFFCURVE",
"694 742 CURVE",
"687 719 OFFCURVE",
"672 699 OFFCURVE",
"649 682 CURVE",
"554 627 LINE",
"546 627 LINE SMOOTH",
"515 627 OFFCURVE",
"512 676 OFFCURVE",
"512 745 CURVE SMOOTH",
"512 1432 LINE SMOOTH",
"512 1457 OFFCURVE",
"494 1476 OFFCURVE",
"469 1476 CURVE SMOOTH",
"50 1476 LINE SMOOTH",
"39 1476 OFFCURVE",
"31 1468 OFFCURVE",
"31 1460 CURVE SMOOTH",
"31 1125 LINE",
"123 1125 LINE",
"123 -235 LINE SMOOTH",
"123 -251 OFFCURVE",
"136 -263 OFFCURVE",
"151 -263 CURVE SMOOTH",
"487 -263 LINE SMOOTH",
"502 -263 OFFCURVE",
"512 -251 OFFCURVE",
"512 -235 CURVE SMOOTH",
"512 148 LINE",
"569 187 OFFCURVE",
"642 233 OFFCURVE",
"730 285 CURVE SMOOTH",
"854 359 LINE SMOOTH",
"895 384 OFFCURVE",
"932 406 OFFCURVE",
"965 425 CURVE SMOOTH",
"1008 450 OFFCURVE",
"1035 466 OFFCURVE",
"1047 473 CURVE",
"1069 487 OFFCURVE",
"1080 494 OFFCURVE",
"1081 495 CURVE",
"1101 518 OFFCURVE",
"1109 527 OFFCURVE",
"1109 542 CURVE SMOOTH",
"1109 1432 LINE SMOOTH",
"1109 1457 OFFCURVE",
"1088 1476 OFFCURVE",
"1063 1476 CURVE SMOOTH",
"626 1476 LINE SMOOTH"
);
}
);
width = 1150;
}
);
note = greater;
unicode = 003E;
},
{
glyphname = question;
lastChange = "2017-08-06 14:35:53 +0000";
layers = (
{
layerId = "D5E6A06D-BC18-4D21-A29C-804CFD6A7B96";
paths = (
{
closed = 1;
nodes = (
"53 1510 OFFCURVE",
"47 1503 OFFCURVE",
"47 1495 CURVE SMOOTH",
"47 1171 LINE SMOOTH",
"47 1163 OFFCURVE",
"53 1156 OFFCURVE",
"62 1156 CURVE SMOOTH",
"303 1156 LINE SMOOTH",
"324 1156 OFFCURVE",
"340 1147 OFFCURVE",
"352 1130 CURVE",
"352 970 LINE SMOOTH",
"352 961 OFFCURVE",
"348 948 OFFCURVE",
"341 932 CURVE",
"248 753 LINE",
"214 687 LINE",
"163 588 LINE",
"155 572 LINE",
"155 446 LINE SMOOTH",
"155 438 OFFCURVE",
"161 431 OFFCURVE",
"170 431 CURVE SMOOTH",
"505 429 LINE SMOOTH",
"513 429 OFFCURVE",
"520 436 OFFCURVE",
"520 444 CURVE SMOOTH",
"520 549 LINE SMOOTH",
"520 569 OFFCURVE",
"520 576 OFFCURVE",
"527 587 CURVE",
"713 945 LINE",
"714 948 OFFCURVE",
"715 950 OFFCURVE",
"715 953 CURVE SMOOTH",
"715 1206 LINE SMOOTH",
"715 1278 OFFCURVE",
"695 1352 OFFCURVE",
"651 1408 CURVE SMOOTH",
"597 1476 OFFCURVE",
"517 1510 OFFCURVE",
"411 1510 CURVE SMOOTH",
"62 1510 LINE SMOOTH"
);
},
{
closed = 1;
nodes = (
"183 350 OFFCURVE",
"172 339 OFFCURVE",
"172 324 CURVE SMOOTH",
"172 26 LINE SMOOTH",
"172 11 OFFCURVE",
"183 0 OFFCURVE",
"198 0 CURVE SMOOTH",
"496 0 LINE SMOOTH",
"511 0 OFFCURVE",
"522 11 OFFCURVE",
"522 26 CURVE SMOOTH",
"522 324 LINE SMOOTH",
"522 339 OFFCURVE",
"511 350 OFFCURVE",
"496 350 CURVE SMOOTH",
"198 350 LINE SMOOTH"
);
}
);
width = 760;
}
);
note = question;
unicode = 003F;
},
{
glyphname = at;
lastChange = "2017-08-06 14:35:53 +0000";
layers = (
{
layerId = "D5E6A06D-BC18-4D21-A29C-804CFD6A7B96";
paths = (
{
closed = 1;
nodes = (
"1049 1094 OFFCURVE",
"932 1129 OFFCURVE",
"817 1129 CURVE SMOOTH",
"750 1129 OFFCURVE",
"690 1111 OFFCURVE",
"635 1076 CURVE SMOOTH",
"526 1004 OFFCURVE",
"457 869 OFFCURVE",
"457 697 CURVE SMOOTH",
"457 614 OFFCURVE",
"469 542 OFFCURVE",
"492 479 CURVE SMOOTH",
"539 354 OFFCURVE",
"634 279 OFFCURVE",
"771 279 CURVE SMOOTH",
"844 279 OFFCURVE",
"912 323 OFFCURVE",
"973 410 CURVE",
"996 304 OFFCURVE",
"1046 239 OFFCURVE",
"1123 214 CURVE SMOOTH",
"1164 201 OFFCURVE",
"1204 194 OFFCURVE",
"1242 194 CURVE SMOOTH",
"1349 194 OFFCURVE",
"1444 241 OFFCURVE",
"1507 320 CURVE",
"1578 421 OFFCURVE",
"1614 557 OFFCURVE",
"1614 727 CURVE SMOOTH",
"1614 884 OFFCURVE",
"1584 1021 OFFCURVE",
"1524 1138 CURVE SMOOTH",
"1403 1371 OFFCURVE",
"1170 1504 OFFCURVE",
"859 1504 CURVE SMOOTH",
"712 1504 OFFCURVE",
"579 1469 OFFCURVE",
"459 1399 CURVE SMOOTH",
"218 1259 OFFCURVE",
"70 1004 OFFCURVE",
"70 712 CURVE SMOOTH",
"70 561 OFFCURVE",
"103 425 OFFCURVE",
"170 304 CURVE SMOOTH",
"302 63 OFFCURVE",
"541 -81 OFFCURVE",
"809 -81 CURVE SMOOTH",
"929 -81 OFFCURVE",
"1028 -72 OFFCURVE",
"1105 -53 CURVE",
"1105 119 LINE",
"1064 108 OFFCURVE",
"981 102 OFFCURVE",
"856 102 CURVE",
"637 119 OFFCURVE",
"479 205 OFFCURVE",
"380 361 CURVE",
"311 455 OFFCURVE",
"273 569 OFFCURVE",
"266 703 CURVE",
"269 835 OFFCURVE",
"296 946 OFFCURVE",
"348 1036 CURVE SMOOTH",
"451 1215 OFFCURVE",
"632 1303 OFFCURVE",
"860 1308 CURVE",
"1039 1305 OFFCURVE",
"1177 1258 OFFCURVE",
"1273 1166 CURVE",
"1370 1053 OFFCURVE",
"1419 923 OFFCURVE",
"1419 778 CURVE SMOOTH",
"1419 753 OFFCURVE",
"1418 735 OFFCURVE",
"1417 722 CURVE",
"1418 576 OFFCURVE",
"1401 481 OFFCURVE",
"1366 437 CURVE SMOOTH",
"1335 398 OFFCURVE",
"1291 380 OFFCURVE",
"1250 380 CURVE SMOOTH",
"1202 380 OFFCURVE",
"1166 405 OFFCURVE",
"1170 441 CURVE",
"1170 1023 LINE"
);
},
{
closed = 1;
nodes = (
"910 511 OFFCURVE",
"857 485 OFFCURVE",
"814 485 CURVE SMOOTH",
"715 485 OFFCURVE",
"665 559 OFFCURVE",
"665 708 CURVE SMOOTH",
"665 862 OFFCURVE",
"720 939 OFFCURVE",
"830 939 CURVE SMOOTH",
"864 939 OFFCURVE",
"911 928 OFFCURVE",
"971 907 CURVE",
"971 564 LINE"
);
}
);
width = 1684;
}
);
note = at;
unicode = 0040;
},
{
glyphname = A;
lastChange = "2017-08-06 14:35:53 +0000";
layers = (
{
layerId = "D5E6A06D-BC18-4D21-A29C-804CFD6A7B96";
paths = (
{
closed = 1;
nodes = (
"1411 1473 OFFCURVE",
"1402 1477 OFFCURVE",
"1393 1477 CURVE SMOOTH",
"1035 1477 LINE SMOOTH",
"1012 1477 OFFCURVE",
"996 1461 OFFCURVE",
"996 1438 CURVE SMOOTH",
"996 1167 LINE",
"1077 1167 LINE",
"1077 404 LINE",
"949 404 LINE",
"949 1438 LINE SMOOTH",
"949 1461 OFFCURVE",
"933 1477 OFFCURVE",
"913 1477 CURVE SMOOTH",
"561 1477 LINE SMOOTH",
"540 1477 OFFCURVE",
"524 1461 OFFCURVE",
"524 1438 CURVE SMOOTH",
"524 1167 LINE",
"585 1167 LINE",
"585 404 LINE",
"477 404 LINE",
"477 1438 LINE SMOOTH",
"477 1449 OFFCURVE",
"474 1458 OFFCURVE",
"468 1466 CURVE",
"461 1473 OFFCURVE",
"452 1477 OFFCURVE",
"442 1477 CURVE SMOOTH",
"82 1477 LINE SMOOTH",
"61 1477 OFFCURVE",
"43 1459 OFFCURVE",
"43 1438 CURVE SMOOTH",
"43 1167 LINE",
"135 1167 LINE SMOOTH",
"147 1167 OFFCURVE",
"154 1160 OFFCURVE",
"154 1149 CURVE SMOOTH",
"154 1147 OFFCURVE",
"153 1144 OFFCURVE",
"152 1140 CURVE",
"112 1033 LINE",
"112 169 LINE SMOOTH",
"112 124 OFFCURVE",
"141 80 OFFCURVE",
"188 48 CURVE SMOOTH",
"232 17 OFFCURVE",
"288 -2 OFFCURVE",
"336 -2 CURVE SMOOTH",
"1258 -2 LINE SMOOTH",
"1304 -2 OFFCURVE",
"1344 15 OFFCURVE",
"1379 48 CURVE SMOOTH",
"1411 80 OFFCURVE",
"1429 122 OFFCURVE",
"1429 169 CURVE SMOOTH",
"1429 1438 LINE SMOOTH",
"1429 1449 OFFCURVE",
"1425 1459 OFFCURVE",
"1418 1466 CURVE SMOOTH"
);
}
);
width = 1489;
}
);
note = A;
unicode = 0041;
},
{
glyphname = B;
lastChange = "2017-08-06 14:35:53 +0000";
layers = (
{
layerId = "D5E6A06D-BC18-4D21-A29C-804CFD6A7B96";
paths = (
{
closed = 1;
nodes = (
"159 1104 LINE",
"244 1104 LINE",
"244 414 LINE",
"227 393 OFFCURVE",
"208 382 OFFCURVE",
"186 382 CURVE SMOOTH",
"35 382 LINE",
"35 2 LINE",
"291 2 LINE SMOOTH",
"318 2 OFFCURVE",
"340 3 OFFCURVE",
"359 6 CURVE",
"407 11 OFFCURVE",
"465 30 OFFCURVE",
"516 62 CURVE SMOOTH",
"525 68 OFFCURVE",
"533 76 OFFCURVE",
"542 85 CURVE",
"558 103 OFFCURVE",
"578 131 OFFCURVE",
"585 140 CURVE SMOOTH",
"620 184 OFFCURVE",
"636 223 OFFCURVE",
"656 302 CURVE",
"661 331 OFFCURVE",
"663 354 OFFCURVE",
"663 373 CURVE SMOOTH",
"663 1434 LINE SMOOTH",
"663 1457 OFFCURVE",
"647 1474 OFFCURVE",
"624 1474 CURVE SMOOTH",
"159 1474 LINE"
);
}
);
width = 703;
}
);
note = B;
unicode = 0042;
},
{
glyphname = C;
lastChange = "2017-08-06 14:35:53 +0000";
layers = (
{
layerId = "D5E6A06D-BC18-4D21-A29C-804CFD6A7B96";
paths = (
{
closed = 1;
nodes = (
"981 1450 LINE SMOOTH",
"981 1465 OFFCURVE",
"970 1476 OFFCURVE",
"955 1476 CURVE SMOOTH",
"111 1476 LINE SMOOTH",
"96 1476 OFFCURVE",
"85 1465 OFFCURVE",
"85 1450 CURVE SMOOTH",
"85 1081 LINE SMOOTH",
"85 1066 OFFCURVE",
"96 1055 OFFCURVE",
"111 1055 CURVE SMOOTH",
"579 1055 LINE",
"579 421 LINE",
"111 421 LINE SMOOTH",
"96 421 OFFCURVE",
"85 410 OFFCURVE",
"85 395 CURVE SMOOTH",
"85 26 LINE SMOOTH",
"85 11 OFFCURVE",
"96 -1 OFFCURVE",
"111 -1 CURVE SMOOTH",
"1060 -1 LINE SMOOTH",
"1075 -1 OFFCURVE",
"1086 11 OFFCURVE",
"1086 26 CURVE SMOOTH",
"1086 395 LINE SMOOTH",
"1086 410 OFFCURVE",
"1075 421 OFFCURVE",
"1060 421 CURVE SMOOTH",
"981 421 LINE"
);
}
);
width = 1157;
}
);
note = C;
unicode = 0043;
},
{
glyphname = D;
lastChange = "2017-08-06 14:35:53 +0000";
layers = (
{
layerId = "D5E6A06D-BC18-4D21-A29C-804CFD6A7B96";
paths = (
{
closed = 1;
nodes = (
"711 1439 LINE",
"707 1460 OFFCURVE",
"693 1475 OFFCURVE",
"674 1475 CURVE SMOOTH",
"205 1475 LINE SMOOTH",
"189 1475 OFFCURVE",
"177 1460 OFFCURVE",
"177 1439 CURVE SMOOTH",
"190 1038 LINE",
"332 1038 LINE SMOOTH",
"351 1038 OFFCURVE",
"361 1029 OFFCURVE",
"363 1012 CURVE",
"363 1011 LINE",
"398 495 LINE",
"397 496 OFFCURVE",
"394 496 OFFCURVE",
"390 496 CURVE SMOOTH",
"162 496 LINE SMOOTH",
"141 496 OFFCURVE",
"118 480 OFFCURVE",
"113 457 CURVE",
"3 39 LINE",
"2 34 OFFCURVE",
"1 30 OFFCURVE",
"1 27 CURVE SMOOTH",
"1 10 OFFCURVE",
"13 -1 OFFCURVE",
"32 -1 CURVE SMOOTH",
"299 -1 LINE SMOOTH",
"322 -1 OFFCURVE",
"344 16 OFFCURVE",
"349 39 CURVE SMOOTH",
"406 279 LINE",
"438 37 LINE",
"441 30 OFFCURVE",
"443 26 OFFCURVE",
"445 23 CURVE",
"450 11 OFFCURVE",
"461 -1 OFFCURVE",
"476 -1 CURVE SMOOTH",
"828 -1 LINE SMOOTH",
"841 -1 OFFCURVE",
"852 12 OFFCURVE",
"852 28 CURVE SMOOTH",
"852 32 OFFCURVE",
"852 35 OFFCURVE",
"851 37 CURVE",
"778 368 LINE"
);
}
);
width = 868;
}
);
note = D;
unicode = 0044;
},
{
glyphname = E;
lastChange = "2017-08-06 14:35:53 +0000";
layers = (
{
layerId = "D5E6A06D-BC18-4D21-A29C-804CFD6A7B96";
paths = (
{
closed = 1;
nodes = (
"1005 1444 OFFCURVE",
"1000 1455 OFFCURVE",
"991 1462 CURVE",
"983 1471 OFFCURVE",
"972 1475 OFFCURVE",
"959 1475 CURVE SMOOTH",
"54 1475 LINE",
"54 1029 LINE",
"623 1029 LINE SMOOTH",
"647 1029 OFFCURVE",
"669 1010 OFFCURVE",
"669 982 CURVE SMOOTH",
"669 458 LINE SMOOTH",
"669 431 OFFCURVE",
"647 412 OFFCURVE",
"623 412 CURVE SMOOTH",
"493 412 LINE",
"493 0 LINE",
"800 0 LINE",
"1012 225 LINE",
"1012 286 LINE",
"1011 382 OFFCURVE",
"1010 493 OFFCURVE",
"1010 620 CURVE",
"1008 839 LINE",
"1005 1430 LINE"
);
},
{
closed = 1;
nodes = (
"58 828 OFFCURVE",
"40 810 OFFCURVE",
"40 789 CURVE SMOOTH",
"40 -225 LINE SMOOTH",
"40 -246 OFFCURVE",
"58 -264 OFFCURVE",
"79 -264 CURVE SMOOTH",
"409 -264 LINE SMOOTH",
"432 -264 OFFCURVE",
"448 -246 OFFCURVE",
"448 -225 CURVE SMOOTH",
"448 789 LINE SMOOTH",
"448 810 OFFCURVE",
"432 828 OFFCURVE",
"409 828 CURVE SMOOTH",
"79 828 LINE SMOOTH"
);
}
);
width = 1054;
}
);
note = E;
unicode = 0045;
},
{
glyphname = F;
lastChange = "2017-08-06 14:35:53 +0000";
layers = (
{
layerId = "D5E6A06D-BC18-4D21-A29C-804CFD6A7B96";
paths = (
{
closed = 1;
nodes = (
"77 1469 OFFCURVE",
"59 1453 OFFCURVE",
"59 1430 CURVE SMOOTH",
"59 1152 LINE SMOOTH",
"59 1129 OFFCURVE",
"77 1112 OFFCURVE",
"98 1112 CURVE SMOOTH",
"459 1112 LINE",
"459 402 LINE",
"84 402 LINE SMOOTH",
"61 402 OFFCURVE",
"44 386 OFFCURVE",
"44 363 CURVE SMOOTH",
"44 40 LINE SMOOTH",
"44 17 OFFCURVE",
"61 0 OFFCURVE",
"84 0 CURVE SMOOTH",
"820 0 LINE SMOOTH",
"841 0 OFFCURVE",
"858 17 OFFCURVE",
"858 40 CURVE SMOOTH",
"858 1435 LINE SMOOTH",
"858 1458 OFFCURVE",
"841 1475 OFFCURVE",
"820 1475 CURVE SMOOTH",
"98 1469 LINE SMOOTH"
);
}
);
width = 909;
}
);
note = F;
unicode = 0046;
},
{
glyphname = G;
lastChange = "2017-08-06 14:35:53 +0000";
layers = (
{
layerId = "D5E6A06D-BC18-4D21-A29C-804CFD6A7B96";
paths = (
{
closed = 1;
nodes = (
"1097 1470 OFFCURVE",
"1086 1475 OFFCURVE",
"1073 1475 CURVE SMOOTH",
"647 1475 LINE SMOOTH",
"638 1475 OFFCURVE",
"627 1467 OFFCURVE",
"627 1456 CURVE SMOOTH",
"627 1110 LINE",
"697 1110 LINE",
"697 378 LINE",
"602 378 LINE",
"558 1163 LINE",
"545 1428 LINE",
"545 1452 OFFCURVE",
"524 1475 OFFCURVE",
"500 1475 CURVE SMOOTH",
"53 1475 LINE SMOOTH",
"44 1475 OFFCURVE",
"33 1467 OFFCURVE",
"33 1456 CURVE SMOOTH",
"33 1110 LINE",
"141 1110 LINE",
"197 378 LINE",
"94 378 LINE SMOOTH",
"79 378 OFFCURVE",
"68 366 OFFCURVE",
"68 351 CURVE SMOOTH",
"68 26 LINE SMOOTH",
"68 11 OFFCURVE",
"79 0 OFFCURVE",
"94 0 CURVE SMOOTH",
"1092 0 LINE SMOOTH",
"1107 0 OFFCURVE",
"1118 11 OFFCURVE",
"1118 26 CURVE SMOOTH",
"1118 1428 LINE SMOOTH",
"1118 1441 OFFCURVE",
"1114 1452 OFFCURVE",
"1106 1461 CURVE"
);
}
);
width = 1166;
}
);
note = G;
unicode = 0047;
},
{
glyphname = H;
lastChange = "2017-08-06 14:35:53 +0000";
layers = (
{
layerId = "D5E6A06D-BC18-4D21-A29C-804CFD6A7B96";
paths = (
{
closed = 1;
nodes = (
"478 1471 OFFCURVE",
"475 1474 OFFCURVE",
"469 1474 CURVE SMOOTH",
"70 1474 LINE SMOOTH",
"64 1474 OFFCURVE",
"61 1471 OFFCURVE",
"61 1465 CURVE SMOOTH",
"61 591 LINE SMOOTH",
"61 585 OFFCURVE",
"64 582 OFFCURVE",
"70 582 CURVE SMOOTH",
"469 582 LINE SMOOTH",
"475 582 OFFCURVE",
"478 585 OFFCURVE",
"478 591 CURVE SMOOTH",
"478 1465 LINE SMOOTH"
);
}
);
width = 548;
}
);
note = H;
unicode = 0048;
},
{
glyphname = I;
lastChange = "2017-08-06 14:35:53 +0000";
layers = (
{
layerId = "D5E6A06D-BC18-4D21-A29C-804CFD6A7B96";
paths = (
{
closed = 1;
nodes = (
"336 1474 OFFCURVE",
"318 1478 OFFCURVE",
"301 1478 CURVE SMOOTH",
"57 1478 LINE",
"57 -231 LINE SMOOTH",
"57 -242 OFFCURVE",
"61 -250 OFFCURVE",
"68 -256 CURVE",
"74 -263 OFFCURVE",
"82 -267 OFFCURVE",
"93 -267 CURVE SMOOTH",
"407 -267 LINE SMOOTH",
"428 -267 OFFCURVE",
"440 -254 OFFCURVE",
"440 -231 CURVE SMOOTH",
"440 1339 LINE SMOOTH",
"440 1362 OFFCURVE",
"437 1380 OFFCURVE",
"430 1393 CURVE",
"423 1410 OFFCURVE",
"413 1425 OFFCURVE",
"399 1437 CURVE",
"387 1449 OFFCURVE",
"372 1459 OFFCURVE",
"355 1467 CURVE"
);
}
);
width = 487;
}
);
note = I;
unicode = 0049;
},
{
glyphname = J;
lastChange = "2017-08-06 14:35:53 +0000";
layers = (
{
layerId = "D5E6A06D-BC18-4D21-A29C-804CFD6A7B96";
paths = (
{
closed = 1;
nodes = (
"65 1474 OFFCURVE",
"54 1463 OFFCURVE",
"54 1448 CURVE SMOOTH",
"54 1074 LINE SMOOTH",
"54 1059 OFFCURVE",
"65 1048 OFFCURVE",
"80 1048 CURVE SMOOTH",
"120 1048 LINE",
"120 25 LINE SMOOTH",
"120 10 OFFCURVE",
"131 -1 OFFCURVE",
"146 -1 CURVE SMOOTH",
"500 -1 LINE SMOOTH",
"515 -1 OFFCURVE",
"526 10 OFFCURVE",
"526 25 CURVE SMOOTH",
"526 1048 LINE",
"662 1048 LINE",
"662 25 LINE SMOOTH",
"662 10 OFFCURVE",
"673 -1 OFFCURVE",
"688 -1 CURVE SMOOTH",
"1042 -1 LINE SMOOTH",
"1057 -1 OFFCURVE",
"1068 10 OFFCURVE",
"1068 25 CURVE SMOOTH",
"1068 1448 LINE SMOOTH",
"1068 1463 OFFCURVE",
"1057 1474 OFFCURVE",
"1042 1474 CURVE SMOOTH",
"80 1474 LINE SMOOTH"
);
}
);
width = 1127;
}
);
note = J;
unicode = 004A;
},
{
glyphname = K;
lastChange = "2017-08-06 14:35:53 +0000";
layers = (
{
layerId = "D5E6A06D-BC18-4D21-A29C-804CFD6A7B96";
paths = (
{
closed = 1;
nodes = (
"915 1471 OFFCURVE",
"910 1473 OFFCURVE",
"905 1473 CURVE SMOOTH",
"394 1473 LINE",
"394 1674 LINE SMOOTH",
"394 1695 OFFCURVE",
"373 1713 OFFCURVE",
"348 1713 CURVE SMOOTH",
"88 1713 LINE SMOOTH",
"61 1713 OFFCURVE",
"41 1695 OFFCURVE",
"41 1674 CURVE SMOOTH",
"41 1128 LINE SMOOTH",
"41 1117 OFFCURVE",
"50 1110 OFFCURVE",
"61 1110 CURVE SMOOTH",
"505 1110 LINE",
"505 439 LINE",
"489 419 OFFCURVE",
"467 407 OFFCURVE",
"443 407 CURVE SMOOTH",
"309 407 LINE SMOOTH",
"298 407 OFFCURVE",
"290 398 OFFCURVE",
"290 390 CURVE SMOOTH",
"290 18 LINE SMOOTH",
"290 9 OFFCURVE",
"298 -1 OFFCURVE",
"309 -1 CURVE SMOOTH",
"552 -1 LINE SMOOTH",
"699 -1 OFFCURVE",
"791 54 OFFCURVE",
"847 125 CURVE SMOOTH",
"900 194 OFFCURVE",
"924 283 OFFCURVE",
"924 371 CURVE SMOOTH",
"924 1454 LINE SMOOTH",
"924 1457 OFFCURVE",
"922 1462 OFFCURVE",
"919 1467 CURVE"
);
}
);
width = 972;
}
);
note = K;
unicode = 004B;
},
{
glyphname = L;
lastChange = "2017-08-06 14:35:53 +0000";
layers = (
{
layerId = "D5E6A06D-BC18-4D21-A29C-804CFD6A7B96";
paths = (
{
closed = 1;
nodes = (
"50 1475 OFFCURVE",
"33 1457 OFFCURVE",
"33 1436 CURVE SMOOTH",
"33 1159 LINE SMOOTH",
"33 1136 OFFCURVE",
"50 1120 OFFCURVE",
"73 1120 CURVE SMOOTH",
"431 1120 LINE",
"431 -226 LINE SMOOTH",
"431 -247 OFFCURVE",
"449 -265 OFFCURVE",
"470 -265 CURVE SMOOTH",
"789 -265 LINE SMOOTH",
"812 -265 OFFCURVE",
"828 -247 OFFCURVE",
"828 -226 CURVE SMOOTH",
"828 1441 LINE SMOOTH",
"828 1464 OFFCURVE",
"811 1480 OFFCURVE",
"790 1480 CURVE SMOOTH",
"73 1475 LINE SMOOTH"
);
}
);
width = 882;
}
);
note = L;
unicode = 004C;
},
{
glyphname = M;
lastChange = "2017-08-06 14:35:53 +0000";
layers = (
{
layerId = "D5E6A06D-BC18-4D21-A29C-804CFD6A7B96";
paths = (
{
closed = 1;
nodes = (
"1155 8 OFFCURVE",
"1156 11 OFFCURVE",
"1156 15 CURVE SMOOTH",
"1156 20 OFFCURVE",
"1155 23 OFFCURVE",
"1154 25 CURVE",
"791 830 LINE",
"1127 830 LINE SMOOTH",
"1142 830 OFFCURVE",
"1156 844 OFFCURVE",
"1156 860 CURVE SMOOTH",
"1156 1447 LINE SMOOTH",
"1156 1460 OFFCURVE",
"1142 1475 OFFCURVE",
"1127 1475 CURVE SMOOTH",
"751 1475 LINE SMOOTH",
"738 1475 OFFCURVE",
"723 1460 OFFCURVE",
"723 1447 CURVE SMOOTH",
"723 986 LINE",
"518 1447 LINE",
"509 1462 OFFCURVE",
"492 1475 OFFCURVE",
"477 1475 CURVE SMOOTH",
"73 1475 LINE SMOOTH",
"64 1475 OFFCURVE",
"58 1472 OFFCURVE",
"54 1466 CURVE",
"53 1464 OFFCURVE",
"53 1461 OFFCURVE",
"53 1458 CURVE SMOOTH",
"53 1453 OFFCURVE",
"54 1450 OFFCURVE",
"55 1447 CURVE",
"515 422 LINE",
"90 422 LINE SMOOTH",
"74 422 OFFCURVE",
"62 407 OFFCURVE",
"62 394 CURVE SMOOTH",
"62 25 LINE SMOOTH",
"62 12 OFFCURVE",
"75 -2 OFFCURVE",
"90 -2 CURVE SMOOTH",
"1139 -2 LINE SMOOTH",
"1146 -2 OFFCURVE",
"1151 1 OFFCURVE",
"1154 6 CURVE"
);
}
);
width = 1233;
}
);
note = M;
unicode = 004D;
},
{
glyphname = N;
lastChange = "2017-08-06 14:35:53 +0000";
layers = (
{
layerId = "D5E6A06D-BC18-4D21-A29C-804CFD6A7B96";
paths = (
{
closed = 1;
nodes = (
"1121 1098 OFFCURVE",
"1065 1228 OFFCURVE",
"970 1323 CURVE SMOOTH",
"875 1418 OFFCURVE",
"745 1474 OFFCURVE",
"605 1474 CURVE SMOOTH",
"579 1474 LINE SMOOTH",
"576 1474 OFFCURVE",
"573 1474 OFFCURVE",
"572 1475 CURVE",
"565 1475 LINE",
"92 1475 LINE SMOOTH",
"68 1475 OFFCURVE",
"49 1465 OFFCURVE",
"49 1450 CURVE SMOOTH",
"49 1174 LINE SMOOTH",
"49 1159 OFFCURVE",
"68 1149 OFFCURVE",
"92 1149 CURVE SMOOTH",
"125 1149 LINE",
"100 1084 OFFCURVE",
"88 1021 OFFCURVE",
"88 959 CURVE SMOOTH",
"88 39 LINE SMOOTH",
"88 18 OFFCURVE",
"105 0 OFFCURVE",
"128 0 CURVE SMOOTH",
"485 0 LINE",
"484 959 LINE",
"484 991 OFFCURVE",
"497 1023 OFFCURVE",
"520 1044 CURVE SMOOTH",
"545 1067 OFFCURVE",
"573 1079 OFFCURVE",
"605 1079 CURVE SMOOTH",
"637 1079 OFFCURVE",
"669 1065 OFFCURVE",
"692 1044 CURVE SMOOTH",
"715 1023 OFFCURVE",
"727 992 OFFCURVE",
"727 959 CURVE SMOOTH",
"727 344 LINE",
"569 344 LINE",
"569 0 LINE",
"1088 0 LINE SMOOTH",
"1109 0 OFFCURVE",
"1127 18 OFFCURVE",
"1127 39 CURVE",
"1121 959 LINE"
);
}
);
width = 1187;
}
);
note = N;
unicode = 004E;
},
{
glyphname = O;
lastChange = "2017-08-06 14:35:53 +0000";
layers = (
{
layerId = "D5E6A06D-BC18-4D21-A29C-804CFD6A7B96";
paths = (
{
closed = 1;
nodes = (
"55 1474 OFFCURVE",
"38 1457 OFFCURVE",
"38 1434 CURVE SMOOTH",
"38 1088 LINE SMOOTH",
"38 1067 OFFCURVE",
"55 1048 OFFCURVE",
"78 1048 CURVE SMOOTH",
"114 1048 LINE",
"114 42 LINE SMOOTH",
"114 19 OFFCURVE",
"131 2 OFFCURVE",
"154 2 CURVE SMOOTH",
"1039 2 LINE SMOOTH",
"1062 2 OFFCURVE",
"1079 19 OFFCURVE",
"1079 42 CURVE SMOOTH",
"1079 1434 LINE SMOOTH",
"1079 1457 OFFCURVE",
"1062 1474 OFFCURVE",
"1039 1474 CURVE SMOOTH",
"78 1474 LINE SMOOTH"
);
},
{
closed = 1;
nodes = (
"495 1043 LINE",
"699 1043 LINE",
"699 420 LINE",
"495 420 LINE"
);
}
);
width = 1123;
}
);
note = O;
unicode = 004F;
},
{
glyphname = P;
lastChange = "2017-08-06 14:35:53 +0000";
layers = (
{
layerId = "D5E6A06D-BC18-4D21-A29C-804CFD6A7B96";
paths = (
{
closed = 1;
nodes = (
"85 1474 OFFCURVE",
"67 1458 OFFCURVE",
"67 1435 CURVE SMOOTH",
"67 1143 LINE",
"66 814 LINE SMOOTH",
"66 667 OFFCURVE",
"146 570 OFFCURVE",
"293 570 CURVE SMOOTH",
"412 570 LINE SMOOTH",
"431 570 OFFCURVE",
"446 586 OFFCURVE",
"446 609 CURVE SMOOTH",
"446 1104 LINE",
"634 1104 LINE",
"634 414 LINE",
"617 394 OFFCURVE",
"592 381 OFFCURVE",
"573 381 CURVE SMOOTH",
"58 381 LINE SMOOTH",
"47 381 OFFCURVE",
"41 371 OFFCURVE",
"41 363 CURVE SMOOTH",
"41 20 LINE SMOOTH",
"41 8 OFFCURVE",
"47 1 OFFCURVE",
"58 1 CURVE SMOOTH",
"680 1 LINE SMOOTH",
"780 1 OFFCURVE",
"846 22 OFFCURVE",
"903 62 CURVE",
"932 80 OFFCURVE",
"955 101 OFFCURVE",
"973 126 CURVE",
"990 147 OFFCURVE",
"1006 173 OFFCURVE",
"1019 204 CURVE SMOOTH",
"1043 263 OFFCURVE",
"1052 336 OFFCURVE",
"1052 372 CURVE SMOOTH",
"1052 1435 LINE SMOOTH",
"1052 1458 OFFCURVE",
"1035 1474 OFFCURVE",
"1012 1474 CURVE SMOOTH",
"106 1474 LINE SMOOTH"
);
}
);
width = 1101;
}
);
note = P;
unicode = 0050;
},
{
glyphname = R;
lastChange = "2017-08-06 14:35:53 +0000";
layers = (
{
layerId = "D5E6A06D-BC18-4D21-A29C-804CFD6A7B96";
paths = (
{
closed = 1;
nodes = (
"951 1469 OFFCURVE",
"936 1475 OFFCURVE",
"919 1475 CURVE SMOOTH",
"95 1475 LINE SMOOTH",
"60 1475 OFFCURVE",
"35 1448 OFFCURVE",
"35 1413 CURVE SMOOTH",
"35 1104 LINE",
"607 1108 LINE",
"607 1 LINE",
"981 1 LINE",
"981 1413 LINE SMOOTH",
"981 1430 OFFCURVE",
"975 1445 OFFCURVE",
"963 1457 CURVE SMOOTH"
);
}
);
width = 1024;
}
);
note = R;
unicode = 0052;
},
{
glyphname = S;
lastChange = "2017-08-06 14:35:53 +0000";
layers = (
{
layerId = "D5E6A06D-BC18-4D21-A29C-804CFD6A7B96";
paths = (
{
closed = 1;
nodes = (
"857 1470 OFFCURVE",
"843 1476 OFFCURVE",
"826 1476 CURVE SMOOTH",
"100 1476 LINE SMOOTH",
"65 1476 OFFCURVE",
"38 1450 OFFCURVE",
"38 1415 CURVE SMOOTH",
"38 1107 LINE",
"405 1104 LINE",
"405 60 LINE SMOOTH",
"405 28 OFFCURVE",
"434 -1 OFFCURVE",
"466 -1 CURVE SMOOTH",
"716 -1 LINE SMOOTH",
"751 -1 OFFCURVE",
"778 27 OFFCURVE",
"778 60 CURVE SMOOTH",
"778 1104 LINE",
"887 1104 LINE",
"887 1415 LINE SMOOTH",
"887 1432 OFFCURVE",
"881 1446 OFFCURVE",
"869 1458 CURVE SMOOTH"
);
}
);
width = 939;
}
);
note = S;
unicode = 0053;
},
{
glyphname = T;
lastChange = "2017-08-06 14:35:53 +0000";
layers = (
{
layerId = "D5E6A06D-BC18-4D21-A29C-804CFD6A7B96";
paths = (
{
closed = 1;
nodes = (
"742 1475 OFFCURVE",
"727 1458 OFFCURVE",
"727 1435 CURVE SMOOTH",
"727 1098 LINE SMOOTH",
"727 1075 OFFCURVE",
"742 1058 OFFCURVE",
"765 1058 CURVE SMOOTH",
"838 1058 LINE",
"838 952 LINE",
"768 881 LINE",
"467 1435 LINE",
"456 1458 OFFCURVE",
"430 1475 OFFCURVE",
"409 1475 CURVE SMOOTH",
"50 1475 LINE SMOOTH",
"35 1475 OFFCURVE",
"26 1466 OFFCURVE",
"26 1453 CURVE SMOOTH",
"26 1449 OFFCURVE",
"28 1443 OFFCURVE",
"31 1435 CURVE",
"263 997 LINE",
"75 791 LINE",
"71 786 LINE",
"70 785 OFFCURVE",
"70 784 OFFCURVE",
"70 782 CURVE",
"67 776 OFFCURVE",
"65 768 OFFCURVE",
"65 759 CURVE SMOOTH",
"65 751 OFFCURVE",
"66 745 OFFCURVE",
"67 740 CURVE",
"67 737 LINE",
"177 417 LINE",
"93 417 LINE SMOOTH",
"72 417 OFFCURVE",
"54 400 OFFCURVE",
"54 379 CURVE SMOOTH",
"54 39 LINE SMOOTH",
"54 16 OFFCURVE",
"72 -1 OFFCURVE",
"93 -1 CURVE SMOOTH",
"490 -1 LINE SMOOTH",
"511 -1 OFFCURVE",
"529 16 OFFCURVE",
"529 39 CURVE SMOOTH",
"529 379 LINE SMOOTH",
"529 392 OFFCURVE",
"528 402 OFFCURVE",
"526 410 CURVE",
"433 592 LINE",
"460 619 LINE",
"768 39 LINE SMOOTH",
"780 16 OFFCURVE",
"807 -1 OFFCURVE",
"828 -1 CURVE SMOOTH",
"1205 -1 LINE SMOOTH",
"1220 -1 OFFCURVE",
"1228 6 OFFCURVE",
"1228 20 CURVE SMOOTH",
"1228 27 OFFCURVE",
"1226 33 OFFCURVE",
"1223 39 CURVE SMOOTH",
"979 490 LINE",
"1244 754 LINE",
"1244 1182 LINE SMOOTH",
"1244 1249 OFFCURVE",
"1225 1306 OFFCURVE",
"1186 1355 CURVE SMOOTH",
"1119 1434 OFFCURVE",
"1009 1475 OFFCURVE",
"933 1475 CURVE SMOOTH",
"765 1475 LINE SMOOTH"
);
}
);
width = 1291;
}
);
note = T;
unicode = 0054;
},
{
glyphname = U;
lastChange = "2017-08-06 14:35:53 +0000";
layers = (
{
layerId = "D5E6A06D-BC18-4D21-A29C-804CFD6A7B96";
paths = (
{
closed = 1;
nodes = (
"445 1470 OFFCURVE",
"430 1476 OFFCURVE",
"413 1476 CURVE SMOOTH",
"113 1476 LINE SMOOTH",
"95 1476 OFFCURVE",
"81 1470 OFFCURVE",
"70 1458 CURVE",
"58 1447 OFFCURVE",
"52 1433 OFFCURVE",
"52 1415 CURVE SMOOTH",
"52 1048 LINE",
"106 1048 LINE",
"107 -2 LINE",
"475 -2 LINE",
"475 1415 LINE SMOOTH",
"475 1432 OFFCURVE",
"469 1447 OFFCURVE",
"458 1458 CURVE"
);
}
);
width = 517;
}
);
note = U;
unicode = 0055;
},
{
glyphname = V;
lastChange = "2017-08-06 14:35:53 +0000";
layers = (
{
layerId = "D5E6A06D-BC18-4D21-A29C-804CFD6A7B96";
paths = (
{
closed = 1;
nodes = (
"110 1475 LINE SMOOTH",
"103 1475 OFFCURVE",
"99 1472 OFFCURVE",
"99 1466 CURVE SMOOTH",
"99 1071 LINE SMOOTH",
"99 1065 OFFCURVE",
"103 1062 OFFCURVE",
"110 1062 CURVE SMOOTH",
"617 1062 LINE",
"617 9 LINE SMOOTH",
"617 3 OFFCURVE",
"621 0 OFFCURVE",
"628 0 CURVE SMOOTH",
"1017 0 LINE SMOOTH",
"1018 0 OFFCURVE",
"1020 1 OFFCURVE",
"1024 2 CURVE",
"1026 9 LINE",
"1026 1475 LINE"
);
},
{
closed = 1;
nodes = (
"80 747 OFFCURVE",
"76 744 OFFCURVE",
"76 738 CURVE",
"90 583 LINE",
"90 9 LINE SMOOTH",
"90 3 OFFCURVE",
"94 0 OFFCURVE",
"101 0 CURVE SMOOTH",
"472 0 LINE SMOOTH",
"479 0 OFFCURVE",
"483 3 OFFCURVE",
"483 9 CURVE SMOOTH",
"483 567 LINE",
"470 738 LINE",
"470 744 OFFCURVE",
"467 747 OFFCURVE",
"460 747 CURVE SMOOTH",
"87 747 LINE SMOOTH"
);
}
);
width = 1112;
}
);
note = V;
unicode = 0056;
},
{
glyphname = X;
lastChange = "2017-08-06 14:35:53 +0000";
layers = (
{
layerId = "D5E6A06D-BC18-4D21-A29C-804CFD6A7B96";
paths = (
{
closed = 1;
nodes = (
"41 1476 OFFCURVE",
"25 1460 OFFCURVE",
"25 1437 CURVE SMOOTH",
"25 1130 LINE",
"111 1130 LINE",
"111 513 LINE SMOOTH",
"111 372 OFFCURVE",
"167 242 OFFCURVE",
"263 146 CURVE SMOOTH",
"359 50 OFFCURVE",
"489 -6 OFFCURVE",
"629 -6 CURVE SMOOTH",
"769 -6 OFFCURVE",
"900 50 OFFCURVE",
"996 146 CURVE SMOOTH",
"1092 242 OFFCURVE",
"1148 372 OFFCURVE",
"1148 513 CURVE SMOOTH",
"1148 1437 LINE SMOOTH",
"1148 1460 OFFCURVE",
"1130 1476 OFFCURVE",
"1107 1476 CURVE SMOOTH",
"64 1476 LINE SMOOTH"
);
},
{
closed = 1;
nodes = (
"750 479 OFFCURVE",
"738 450 OFFCURVE",
"715 427 CURVE SMOOTH",
"692 404 OFFCURVE",
"661 391 OFFCURVE",
"629 391 CURVE SMOOTH",
"564 391 OFFCURVE",
"508 446 OFFCURVE",
"508 513 CURVE SMOOTH",
"508 1130 LINE",
"750 1130 LINE",
"750 513 LINE SMOOTH"
);
}
);
width = 1206;
}
);
note = X;
unicode = 0058;
},
{
glyphname = Y;
lastChange = "2017-08-06 14:35:53 +0000";
layers = (
{
layerId = "D5E6A06D-BC18-4D21-A29C-804CFD6A7B96";
paths = (
{
closed = 1;
nodes = (
"545 946 LINE",
"669 946 LINE",
"721 1085 LINE",
"721 414 LINE",
"488 414 LINE",
"488 1449 LINE SMOOTH",
"488 1464 OFFCURVE",
"476 1475 OFFCURVE",
"461 1475 CURVE SMOOTH",
"60 1475 LINE SMOOTH",
"45 1475 OFFCURVE",
"34 1464 OFFCURVE",
"34 1449 CURVE SMOOTH",
"34 1112 LINE SMOOTH",
"34 1097 OFFCURVE",
"45 1085 OFFCURVE",
"60 1085 CURVE SMOOTH",
"87 1085 LINE",
"87 307 LINE SMOOTH",
"87 261 OFFCURVE",
"95 216 OFFCURVE",
"112 172 CURVE SMOOTH",
"149 72 OFFCURVE",
"228 0 OFFCURVE",
"355 0 CURVE SMOOTH",
"1088 0 LINE SMOOTH",
"1101 0 OFFCURVE",
"1111 11 OFFCURVE",
"1111 26 CURVE SMOOTH",
"1111 1449 LINE SMOOTH",
"1111 1464 OFFCURVE",
"1101 1475 OFFCURVE",
"1088 1475 CURVE SMOOTH",
"611 1475 LINE"
);
}
);
width = 1180;
}
);
note = Y;
unicode = 0059;
},
{
glyphname = Z;
lastChange = "2017-08-06 14:35:53 +0000";
layers = (
{
layerId = "D5E6A06D-BC18-4D21-A29C-804CFD6A7B96";
paths = (
{
closed = 1;
nodes = (
"643 1380 OFFCURVE",
"630 1401 OFFCURVE",
"615 1418 CURVE",
"592 1447 OFFCURVE",
"542 1475 OFFCURVE",
"494 1475 CURVE SMOOTH",
"76 1475 LINE SMOOTH",
"53 1475 OFFCURVE",
"35 1456 OFFCURVE",
"35 1431 CURVE SMOOTH",
"35 1044 LINE",
"102 1044 LINE",
"248 0 LINE",
"652 0 LINE",
"506 1044 LINE",
"633 1044 LINE",
"633 1046 LINE",
"666 1046 LINE",
"666 1279 LINE SMOOTH",
"666 1304 OFFCURVE",
"661 1330 OFFCURVE",
"652 1356 CURVE SMOOTH"
);
}
);
width = 705;
}
);
note = Z;
unicode = 005A;
},
{
glyphname = uni05D0;
lastChange = "2017-08-06 14:35:53 +0000";
layers = (
{
layerId = "D5E6A06D-BC18-4D21-A29C-804CFD6A7B96";
paths = (
{
closed = 1;
nodes = (
"736 1476 OFFCURVE",
"712 1451 OFFCURVE",
"712 1420 CURVE SMOOTH",
"712 1153 LINE SMOOTH",
"712 1121 OFFCURVE",
"736 1097 OFFCURVE",
"768 1097 CURVE",
"779 1093 OFFCURVE",
"785 1082 OFFCURVE",
"785 1064 CURVE SMOOTH",
"785 1057 OFFCURVE",
"785 1052 OFFCURVE",
"784 1048 CURVE",
"783 1037 OFFCURVE",
"781 1023 OFFCURVE",
"780 1003 CURVE SMOOTH",
"779 988 OFFCURVE",
"776 971 OFFCURVE",
"770 954 CURVE",
"764 931 OFFCURVE",
"754 919 OFFCURVE",
"739 919 CURVE SMOOTH",
"734 919 OFFCURVE",
"729 920 OFFCURVE",
"724 922 CURVE",
"706 928 OFFCURVE",
"689 942 OFFCURVE",
"672 963 CURVE SMOOTH",
"569 1097 LINE",
"571 1097 LINE SMOOTH",
"603 1097 OFFCURVE",
"629 1121 OFFCURVE",
"629 1153 CURVE SMOOTH",
"629 1420 LINE SMOOTH",
"629 1451 OFFCURVE",
"603 1476 OFFCURVE",
"571 1476 CURVE SMOOTH",
"137 1476 LINE SMOOTH",
"106 1476 OFFCURVE",
"81 1451 OFFCURVE",
"81 1420 CURVE SMOOTH",
"81 1106 LINE",
"233 911 LINE",
"246 896 OFFCURVE",
"252 883 OFFCURVE",
"252 872 CURVE SMOOTH",
"252 857 OFFCURVE",
"240 847 OFFCURVE",
"216 834 CURVE SMOOTH",
"201 826 OFFCURVE",
"182 816 OFFCURVE",
"161 804 CURVE SMOOTH",
"145 795 OFFCURVE",
"128 786 OFFCURVE",
"109 777 CURVE",
"101 772 OFFCURVE",
"95 764 OFFCURVE",
"92 755 CURVE SMOOTH",
"86 738 OFFCURVE",
"83 717 OFFCURVE",
"83 692 CURVE SMOOTH",
"83 683 OFFCURVE",
"82 675 OFFCURVE",
"81 667 CURVE",
"80 665 OFFCURVE",
"80 656 OFFCURVE",
"80 640 CURVE",
"79 630 OFFCURVE",
"79 611 OFFCURVE",
"79 584 CURVE SMOOTH",
"79 510 LINE",
"79 427 LINE SMOOTH",
"79 392 OFFCURVE",
"80 326 OFFCURVE",
"81 229 CURVE SMOOTH",
"81 205 LINE",
"81 58 LINE SMOOTH",
"81 26 OFFCURVE",
"106 0 OFFCURVE",
"137 0 CURVE SMOOTH",
"498 0 LINE SMOOTH",
"529 0 OFFCURVE",
"554 26 OFFCURVE",
"554 58 CURVE SMOOTH",
"554 325 LINE SMOOTH",
"554 356 OFFCURVE",
"529 381 OFFCURVE",
"498 381 CURVE SMOOTH",
"489 381 OFFCURVE",
"477 381 OFFCURVE",
"473 402 CURVE SMOOTH",
"468 426 LINE",
"467 438 OFFCURVE",
"466 446 OFFCURVE",
"466 449 CURVE SMOOTH",
"466 456 OFFCURVE",
"466 461 OFFCURVE",
"467 464 CURVE",
"467 468 OFFCURVE",
"467 473 OFFCURVE",
"468 478 CURVE",
"468 483 OFFCURVE",
"468 491 OFFCURVE",
"468 501 CURVE",
"469 520 OFFCURVE",
"486 534 OFFCURVE",
"507 534 CURVE SMOOTH",
"523 534 OFFCURVE",
"539 525 OFFCURVE",
"554 507 CURVE SMOOTH",
"655 379 LINE",
"628 374 OFFCURVE",
"610 352 OFFCURVE",
"610 325 CURVE SMOOTH",
"610 58 LINE SMOOTH",
"610 26 OFFCURVE",
"633 0 OFFCURVE",
"665 0 CURVE SMOOTH",
"1100 0 LINE SMOOTH",
"1129 0 OFFCURVE",
"1155 26 OFFCURVE",
"1155 58 CURVE SMOOTH",
"1155 336 LINE",
"1151 352 OFFCURVE",
"1141 365 OFFCURVE",
"1125 374 CURVE",
"999 539 LINE SMOOTH",
"986 555 OFFCURVE",
"979 567 OFFCURVE",
"976 575 CURVE",
"973 581 OFFCURVE",
"972 587 OFFCURVE",
"972 592 CURVE SMOOTH",
"972 596 LINE",
"973 605 OFFCURVE",
"982 609 OFFCURVE",
"995 614 CURVE",
"1037 634 LINE",
"1095 661 LINE SMOOTH",
"1142 682 OFFCURVE",
"1155 693 OFFCURVE",
"1155 740 CURVE",
"1154 747 OFFCURVE",
"1154 767 OFFCURVE",
"1154 800 CURVE",
"1153 820 OFFCURVE",
"1153 855 OFFCURVE",
"1153 904 CURVE SMOOTH",
"1153 972 OFFCURVE",
"1154 1051 OFFCURVE",
"1155 1142 CURVE SMOOTH",
"1155 1420 LINE SMOOTH",
"1155 1451 OFFCURVE",
"1129 1476 OFFCURVE",
"1100 1476 CURVE SMOOTH",
"768 1476 LINE SMOOTH"
);
}
);
width = 1238;
}
);
note = uni05D0;
unicode = 05D0;
},
{
glyphname = uni05D1;
lastChange = "2017-08-06 14:35:53 +0000";
layers = (
{
layerId = "D5E6A06D-BC18-4D21-A29C-804CFD6A7B96";
paths = (
{
closed = 1;
nodes = (
"957 1315 LINE SMOOTH",
"957 1347 OFFCURVE",
"938 1385 OFFCURVE",
"910 1418 CURVE SMOOTH",
"881 1451 OFFCURVE",
"844 1474 OFFCURVE",
"809 1474 CURVE SMOOTH",
"94 1474 LINE SMOOTH",
"78 1474 OFFCURVE",
"66 1462 OFFCURVE",
"66 1442 CURVE SMOOTH",
"66 1055 LINE",
"474 1055 LINE SMOOTH",
"531 1055 OFFCURVE",
"560 1024 OFFCURVE",
"560 963 CURVE SMOOTH",
"568 731 LINE",
"568 422 LINE",
"75 422 LINE SMOOTH",
"70 422 OFFCURVE",
"68 419 OFFCURVE",
"68 413 CURVE SMOOTH",
"68 12 LINE SMOOTH",
"68 5 OFFCURVE",
"70 1 OFFCURVE",
"75 1 CURVE SMOOTH",
"1062 1 LINE SMOOTH",
"1068 1 OFFCURVE",
"1071 5 OFFCURVE",
"1071 12 CURVE SMOOTH",
"1071 413 LINE SMOOTH",
"1071 419 OFFCURVE",
"1068 422 OFFCURVE",
"1062 422 CURVE SMOOTH",
"957 422 LINE"
);
}
);
width = 1122;
}
);
note = uni05D1;
unicode = 05D1;
},
{
glyphname = uni05D2;
lastChange = "2017-08-06 14:35:53 +0000";
layers = (
{
layerId = "D5E6A06D-BC18-4D21-A29C-804CFD6A7B96";
paths = (
{
closed = 1;
nodes = (
"654 1461 OFFCURVE",
"641 1476 OFFCURVE",
"622 1476 CURVE SMOOTH",
"179 1476 LINE SMOOTH",
"164 1476 OFFCURVE",
"151 1460 OFFCURVE",
"151 1440 CURVE SMOOTH",
"151 1038 LINE",
"358 1038 LINE SMOOTH",
"377 1038 OFFCURVE",
"388 1030 OFFCURVE",
"390 1013 CURVE",
"390 1011 LINE",
"463 616 LINE",
"464 613 OFFCURVE",
"464 610 OFFCURVE",
"464 605 CURVE SMOOTH",
"464 592 OFFCURVE",
"458 586 OFFCURVE",
"446 586 CURVE SMOOTH",
"190 586 LINE SMOOTH",
"174 586 OFFCURVE",
"158 569 OFFCURVE",
"153 548 CURVE",
"70 41 LINE",
"69 39 OFFCURVE",
"69 36 OFFCURVE",
"69 32 CURVE SMOOTH",
"69 15 OFFCURVE",
"79 4 OFFCURVE",
"92 4 CURVE SMOOTH",
"377 4 LINE SMOOTH",
"394 4 OFFCURVE",
"409 18 OFFCURVE",
"414 41 CURVE",
"482 448 LINE",
"485 456 OFFCURVE",
"487 460 OFFCURVE",
"489 460 CURVE SMOOTH",
"491 460 OFFCURVE",
"493 456 OFFCURVE",
"495 448 CURVE",
"571 38 LINE",
"576 17 OFFCURVE",
"592 0 OFFCURVE",
"608 0 CURVE SMOOTH",
"895 0 LINE SMOOTH",
"908 0 OFFCURVE",
"918 13 OFFCURVE",
"918 29 CURVE SMOOTH",
"918 33 OFFCURVE",
"918 36 OFFCURVE",
"917 38 CURVE",
"659 1440 LINE"
);
}
);
width = 904;
}
);
note = uni05D2;
unicode = 05D2;
},
{
glyphname = uni05D3;
lastChange = "2017-08-06 14:35:53 +0000";
layers = (
{
layerId = "D5E6A06D-BC18-4D21-A29C-804CFD6A7B96";
paths = (
{
closed = 1;
nodes = (
"84 1476 OFFCURVE",
"57 1449 OFFCURVE",
"57 1414 CURVE SMOOTH",
"57 1166 LINE SMOOTH",
"57 1131 OFFCURVE",
"84 1104 OFFCURVE",
"119 1104 CURVE SMOOTH",
"425 1104 LINE",
"425 62 LINE SMOOTH",
"425 27 OFFCURVE",
"453 0 OFFCURVE",
"485 0 CURVE SMOOTH",
"735 0 LINE SMOOTH",
"770 0 OFFCURVE",
"797 27 OFFCURVE",
"797 62 CURVE SMOOTH",
"797 1104 LINE",
"919 1104 LINE",
"919 1414 LINE SMOOTH",
"919 1449 OFFCURVE",
"892 1476 OFFCURVE",
"857 1476 CURVE SMOOTH",
"119 1476 LINE SMOOTH"
);
}
);
width = 969;
}
);
note = uni05D3;
unicode = 05D3;
},
{
glyphname = uni05D4;
lastChange = "2017-08-06 14:35:53 +0000";
layers = (
{
layerId = "D5E6A06D-BC18-4D21-A29C-804CFD6A7B96";
paths = (
{
closed = 1;
nodes = (
"57 1476 LINE SMOOTH",
"50 1476 OFFCURVE",
"46 1473 OFFCURVE",
"46 1467 CURVE SMOOTH",
"46 1064 LINE SMOOTH",
"46 1060 OFFCURVE",
"50 1055 OFFCURVE",
"57 1055 CURVE SMOOTH",
"551 1055 LINE",
"551 9 LINE SMOOTH",
"551 3 OFFCURVE",
"555 0 OFFCURVE",
"562 0 CURVE SMOOTH",
"952 0 LINE SMOOTH",
"956 0 OFFCURVE",
"961 4 OFFCURVE",
"961 9 CURVE SMOOTH",
"961 1476 LINE"
);
},
{
closed = 1;
nodes = (
"54 827 OFFCURVE",
"50 824 OFFCURVE",
"50 818 CURVE SMOOTH",
"50 9 LINE SMOOTH",
"50 3 OFFCURVE",
"54 0 OFFCURVE",
"61 0 CURVE SMOOTH",
"443 0 LINE SMOOTH",
"450 0 OFFCURVE",
"454 3 OFFCURVE",
"454 9 CURVE SMOOTH",
"454 818 LINE SMOOTH",
"454 824 OFFCURVE",
"450 827 OFFCURVE",
"443 827 CURVE SMOOTH",
"61 827 LINE SMOOTH"
);
}
);
width = 1022;
}
);
note = uni05D4;
unicode = 05D4;
},
{
glyphname = uni05D5;
lastChange = "2017-08-06 14:35:53 +0000";
layers = (
{
layerId = "D5E6A06D-BC18-4D21-A29C-804CFD6A7B96";
paths = (
{
closed = 1;
nodes = (
"54 1477 OFFCURVE",
"27 1450 OFFCURVE",
"27 1415 CURVE SMOOTH",
"27 1110 LINE",
"135 1110 LINE",
"135 63 LINE SMOOTH",
"135 28 OFFCURVE",
"162 0 OFFCURVE",
"197 0 CURVE SMOOTH",
"448 0 LINE SMOOTH",
"483 0 OFFCURVE",
"511 28 OFFCURVE",
"511 63 CURVE SMOOTH",
"511 1415 LINE SMOOTH",
"511 1450 OFFCURVE",
"483 1477 OFFCURVE",
"448 1477 CURVE SMOOTH",
"89 1477 LINE SMOOTH"
);
}
);
width = 573;
}
);
note = uni05D5;
unicode = 05D5;
},
{
glyphname = uni05D6;
lastChange = "2017-08-06 14:35:53 +0000";
layers = (
{
layerId = "D5E6A06D-BC18-4D21-A29C-804CFD6A7B96";
paths = (
{
closed = 1;
nodes = (
"110 1475 OFFCURVE",
"92 1456 OFFCURVE",
"92 1431 CURVE SMOOTH",
"92 1050 LINE",
"202 1050 LINE",
"90 770 LINE",
"88 766 OFFCURVE",
"87 761 OFFCURVE",
"87 755 CURVE SMOOTH",
"87 748 OFFCURVE",
"88 743 OFFCURVE",
"90 739 CURVE",
"221 518 LINE",
"225 513 OFFCURVE",
"227 507 OFFCURVE",
"227 500 CURVE SMOOTH",
"227 497 OFFCURVE",
"227 495 OFFCURVE",
"226 493 CURVE",
"88 19 LINE",
"86 8 OFFCURVE",
"90 2 OFFCURVE",
"99 2 CURVE SMOOTH",
"463 2 LINE SMOOTH",
"466 2 OFFCURVE",
"469 3 OFFCURVE",
"473 4 CURVE",
"475 6 LINE SMOOTH",
"478 9 OFFCURVE",
"480 12 OFFCURVE",
"481 13 CURVE",
"484 19 LINE",
"645 554 LINE",
"646 556 OFFCURVE",
"646 559 OFFCURVE",
"646 563 CURVE SMOOTH",
"646 573 OFFCURVE",
"644 579 OFFCURVE",
"640 582 CURVE",
"511 785 LINE",
"508 788 OFFCURVE",
"507 792 OFFCURVE",
"507 797 CURVE SMOOTH",
"507 799 OFFCURVE",
"508 802 OFFCURVE",
"509 806 CURVE",
"617 1052 LINE",
"649 1052 LINE",
"649 1282 LINE SMOOTH",
"649 1334 OFFCURVE",
"631 1383 OFFCURVE",
"599 1419 CURVE SMOOTH",
"566 1456 OFFCURVE",
"526 1475 OFFCURVE",
"480 1475 CURVE SMOOTH",
"133 1475 LINE SMOOTH"
);
}
);
width = 718;
}
);
note = uni05D6;
unicode = 05D6;
},
{
glyphname = uni05D7;
lastChange = "2017-08-06 14:35:53 +0000";
layers = (
{
layerId = "D5E6A06D-BC18-4D21-A29C-804CFD6A7B96";
paths = (
{
closed = 1;
nodes = (
"103 1476 OFFCURVE",
"97 1470 OFFCURVE",
"97 1457 CURVE SMOOTH",
"97 19 LINE SMOOTH",
"97 6 OFFCURVE",
"103 0 OFFCURVE",
"116 0 CURVE SMOOTH",
"491 0 LINE SMOOTH",
"502 0 OFFCURVE",
"510 8 OFFCURVE",
"510 19 CURVE SMOOTH",
"510 1034 LINE",
"630 1034 LINE",
"649 1021 OFFCURVE",
"659 999 OFFCURVE",
"659 975 CURVE SMOOTH",
"659 19 LINE SMOOTH",
"659 8 OFFCURVE",
"667 0 OFFCURVE",
"678 0 CURVE SMOOTH",
"1072 0 LINE SMOOTH",
"1083 0 OFFCURVE",
"1091 8 OFFCURVE",
"1091 19 CURVE SMOOTH",
"1091 1293 LINE SMOOTH",
"1091 1342 OFFCURVE",
"1071 1388 OFFCURVE",
"1038 1423 CURVE",
"1003 1456 OFFCURVE",
"957 1476 OFFCURVE",
"908 1476 CURVE SMOOTH",
"116 1476 LINE SMOOTH"
);
}
);
width = 1183;
}
);
note = uni05D7;
unicode = 05D7;
},
{
glyphname = uni05D8;
lastChange = "2017-08-06 14:35:53 +0000";
layers = (
{
layerId = "D5E6A06D-BC18-4D21-A29C-804CFD6A7B96";
paths = (
{
closed = 1;
nodes = (
"642 1424 OFFCURVE",
"575 1306 OFFCURVE",
"575 1273 CURVE SMOOTH",
"575 947 LINE SMOOTH",
"575 935 OFFCURVE",
"575 931 OFFCURVE",
"582 941 CURVE",
"585 946 OFFCURVE",
"588 951 OFFCURVE",
"591 956 CURVE SMOOTH",
"606 983 LINE",
"681 1112 LINE",
"681 442 LINE",
"668 423 OFFCURVE",
"644 410 OFFCURVE",
"621 410 CURVE SMOOTH",
"513 410 LINE",
"513 1420 LINE SMOOTH",
"513 1452 OFFCURVE",
"490 1476 OFFCURVE",
"458 1476 CURVE SMOOTH",
"104 1476 LINE SMOOTH",
"73 1476 OFFCURVE",
"49 1452 OFFCURVE",
"49 1420 CURVE SMOOTH",
"49 1043 LINE SMOOTH",
"49 1038 OFFCURVE",
"52 1032 OFFCURVE",
"59 1032 CURVE SMOOTH",
"111 1032 LINE",
"111 20 LINE SMOOTH",
"111 7 OFFCURVE",
"117 1 OFFCURVE",
"128 1 CURVE SMOOTH",
"728 1 LINE SMOOTH",
"865 1 OFFCURVE",
"962 48 OFFCURVE",
"1023 125 CURVE SMOOTH",
"1076 193 OFFCURVE",
"1100 284 OFFCURVE",
"1100 373 CURVE SMOOTH",
"1100 1429 LINE SMOOTH",
"1100 1454 OFFCURVE",
"1082 1476 OFFCURVE",
"1055 1476 CURVE SMOOTH",
"674 1476 LINE"
);
}
);
width = 1187;
}
);
note = uni05D8;
unicode = 05D8;
},
{
glyphname = uni05D9;
lastChange = "2017-08-06 14:35:53 +0000";
layers = (
{
layerId = "D5E6A06D-BC18-4D21-A29C-804CFD6A7B96";
paths = (
{
closed = 1;
nodes = (
"43 1475 OFFCURVE",
"29 1461 OFFCURVE",
"29 1442 CURVE SMOOTH",
"29 1088 LINE SMOOTH",
"29 1071 OFFCURVE",
"43 1054 OFFCURVE",
"62 1054 CURVE SMOOTH",
"84 1054 LINE",
"84 628 LINE SMOOTH",
"84 609 OFFCURVE",
"101 595 OFFCURVE",
"118 595 CURVE SMOOTH",
"445 595 LINE SMOOTH",
"465 595 OFFCURVE",
"480 608 OFFCURVE",
"480 628 CURVE SMOOTH",
"480 1330 LINE SMOOTH",
"480 1369 OFFCURVE",
"466 1403 OFFCURVE",
"437 1432 CURVE SMOOTH",
"410 1459 OFFCURVE",
"373 1475 OFFCURVE",
"333 1475 CURVE SMOOTH",
"62 1475 LINE SMOOTH"
);
}
);
width = 538;
}
);
note = uni05D9;
unicode = 05D9;
},
{
glyphname = uni05DA;
lastChange = "2017-08-06 14:35:53 +0000";
layers = (
{
layerId = "D5E6A06D-BC18-4D21-A29C-804CFD6A7B96";
paths = (
{
closed = 1;
nodes = (
"29 1476 OFFCURVE",
"22 1468 OFFCURVE",
"22 1460 CURVE SMOOTH",
"22 1088 LINE SMOOTH",
"22 1077 OFFCURVE",
"29 1069 OFFCURVE",
"40 1069 CURVE SMOOTH",
"397 1069 LINE",
"397 -227 LINE SMOOTH",
"397 -247 OFFCURVE",
"413 -263 OFFCURVE",
"436 -263 CURVE SMOOTH",
"749 -263 LINE SMOOTH",
"768 -263 OFFCURVE",
"783 -246 OFFCURVE",
"783 -227 CURVE SMOOTH",
"783 1460 LINE SMOOTH",
"783 1468 OFFCURVE",
"776 1476 OFFCURVE",
"765 1476 CURVE SMOOTH",
"40 1476 LINE SMOOTH"
);
}
);
width = 871;
}
);
note = uni05DA;
unicode = 05DA;
},
{
glyphname = uni05DB;
lastChange = "2017-08-06 14:35:53 +0000";
layers = (
{
layerId = "D5E6A06D-BC18-4D21-A29C-804CFD6A7B96";
paths = (
{
closed = 1;
nodes = (
"852 1465 OFFCURVE",
"844 1474 OFFCURVE",
"833 1474 CURVE SMOOTH",
"67 1474 LINE SMOOTH",
"56 1474 OFFCURVE",
"48 1465 OFFCURVE",
"48 1456 CURVE SMOOTH",
"48 1069 LINE SMOOTH",
"48 1061 OFFCURVE",
"56 1052 OFFCURVE",
"67 1052 CURVE SMOOTH",
"433 1052 LINE",
"433 441 LINE",
"416 419 OFFCURVE",
"396 408 OFFCURVE",
"371 408 CURVE SMOOTH",
"52 408 LINE SMOOTH",
"41 408 OFFCURVE",
"33 400 OFFCURVE",
"33 391 CURVE SMOOTH",
"33 19 LINE SMOOTH",
"33 8 OFFCURVE",
"41 0 OFFCURVE",
"52 0 CURVE SMOOTH",
"480 0 LINE SMOOTH",
"617 0 OFFCURVE",
"714 47 OFFCURVE",
"775 126 CURVE SMOOTH",
"828 194 OFFCURVE",
"852 284 OFFCURVE",
"852 372 CURVE SMOOTH",
"852 1456 LINE SMOOTH"
);
}
);
width = 919;
}
);
note = uni05DB;
unicode = 05DB;
},
{
glyphname = uni05DC;
lastChange = "2017-08-06 14:35:53 +0000";
layers = (
{
layerId = "D5E6A06D-BC18-4D21-A29C-804CFD6A7B96";
paths = (
{
closed = 1;
nodes = (
"404 1660 LINE SMOOTH",
"404 1688 OFFCURVE",
"381 1709 OFFCURVE",
"356 1709 CURVE SMOOTH",
"79 1709 LINE SMOOTH",
"51 1709 OFFCURVE",
"30 1688 OFFCURVE",
"30 1660 CURVE SMOOTH",
"30 1113 LINE SMOOTH",
"30 1085 OFFCURVE",
"51 1065 OFFCURVE",
"79 1065 CURVE SMOOTH",
"460 1065 LINE SMOOTH",
"497 1065 OFFCURVE",
"525 1050 OFFCURVE",
"525 983 CURVE SMOOTH",
"525 620 LINE SMOOTH",
"525 580 OFFCURVE",
"507 505 OFFCURVE",
"463 456 CURVE SMOOTH",
"102 48 LINE",
"91 37 OFFCURVE",
"86 26 OFFCURVE",
"86 17 CURVE SMOOTH",
"86 6 OFFCURVE",
"93 1 OFFCURVE",
"108 1 CURVE SMOOTH",
"502 1 LINE SMOOTH",
"527 1 OFFCURVE",
"566 21 OFFCURVE",
"593 48 CURVE",
"737 205 LINE",
"790 264 LINE SMOOTH",
"829 307 OFFCURVE",
"856 338 OFFCURVE",
"871 357 CURVE SMOOTH",
"879 367 OFFCURVE",
"884 374 OFFCURVE",
"885 377 CURVE",
"885 1428 LINE SMOOTH",
"885 1453 OFFCURVE",
"864 1476 OFFCURVE",
"837 1476 CURVE SMOOTH",
"404 1476 LINE"
);
}
);
width = 962;
}
);
note = uni05DC;
unicode = 05DC;
},
{
glyphname = uni05DD;
lastChange = "2017-08-06 14:35:53 +0000";
layers = (
{
layerId = "D5E6A06D-BC18-4D21-A29C-804CFD6A7B96";
paths = (
{
closed = 1;
nodes = (
"1061 308 LINE",
"1056 542 LINE",
"1053 714 LINE",
"1049 926 LINE",
"1046 1121 LINE",
"1044 1217 LINE",
"1042 1392 LINE",
"1042 1419 OFFCURVE",
"1042 1432 OFFCURVE",
"1043 1432 CURVE",
"1043 1457 OFFCURVE",
"1022 1476 OFFCURVE",
"997 1476 CURVE SMOOTH",
"137 1476 LINE SMOOTH",
"112 1476 OFFCURVE",
"91 1457 OFFCURVE",
"91 1432 CURVE SMOOTH",
"91 47 LINE SMOOTH",
"91 22 OFFCURVE",
"112 1 OFFCURVE",
"137 1 CURVE SMOOTH",
"1067 1 LINE",
"1066 40 LINE",
"1065 50 OFFCURVE",
"1065 68 OFFCURVE",
"1065 95 CURVE",
"1064 149 LINE"
);
},
{
closed = 1;
nodes = (
"709 418 OFFCURVE",
"688 397 OFFCURVE",
"663 397 CURVE SMOOTH",
"511 397 LINE SMOOTH",
"486 397 OFFCURVE",
"465 418 OFFCURVE",
"465 443 CURVE SMOOTH",
"465 986 LINE SMOOTH",
"465 1013 OFFCURVE",
"486 1033 OFFCURVE",
"511 1033 CURVE SMOOTH",
"663 1033 LINE SMOOTH",
"688 1033 OFFCURVE",
"709 1013 OFFCURVE",
"709 986 CURVE SMOOTH",
"709 443 LINE SMOOTH"
);
}
);
width = 1157;
}
);
note = uni05DD;
unicode = 05DD;
},
{
glyphname = uni05DE;
lastChange = "2017-08-06 14:35:53 +0000";
layers = (
{
layerId = "D5E6A06D-BC18-4D21-A29C-804CFD6A7B96";
paths = (
{
closed = 1;
nodes = (
"1030 1314 LINE SMOOTH",
"1030 1343 OFFCURVE",
"1010 1384 OFFCURVE",
"981 1416 CURVE SMOOTH",
"949 1451 OFFCURVE",
"910 1473 OFFCURVE",
"871 1473 CURVE SMOOTH",
"562 1473 LINE",
"493 1414 LINE SMOOTH",
"481 1403 OFFCURVE",
"465 1390 OFFCURVE",
"444 1374 CURVE",
"433 1434 OFFCURVE",
"379 1475 OFFCURVE",
"319 1475 CURVE SMOOTH",
"55 1475 LINE SMOOTH",
"38 1475 OFFCURVE",
"25 1462 OFFCURVE",
"25 1445 CURVE SMOOTH",
"25 1124 LINE",
"55 1126 LINE",
"76 1126 LINE",
"76 30 LINE SMOOTH",
"76 13 OFFCURVE",
"89 0 OFFCURVE",
"106 0 CURVE SMOOTH",
"418 0 LINE SMOOTH",
"435 0 OFFCURVE",
"448 13 OFFCURVE",
"448 30 CURVE SMOOTH",
"448 1033 LINE",
"473 1050 OFFCURVE",
"510 1074 OFFCURVE",
"538 1083 CURVE SMOOTH",
"545 1085 OFFCURVE",
"551 1086 OFFCURVE",
"558 1086 CURVE SMOOTH",
"575 1086 OFFCURVE",
"589 1080 OFFCURVE",
"602 1067 CURVE SMOOTH",
"619 1050 OFFCURVE",
"630 1020 OFFCURVE",
"630 991 CURVE SMOOTH",
"630 422 LINE",
"504 422 LINE SMOOTH",
"500 422 OFFCURVE",
"495 418 OFFCURVE",
"495 414 CURVE SMOOTH",
"495 11 LINE SMOOTH",
"495 6 OFFCURVE",
"500 2 OFFCURVE",
"504 2 CURVE SMOOTH",
"1023 2 LINE SMOOTH",
"1029 2 OFFCURVE",
"1032 5 OFFCURVE",
"1032 11 CURVE",
"1030 1158 LINE"
);
}
);
width = 1078;
}
);
note = uni05DE;
unicode = 05DE;
},
{
glyphname = uni05DF;
lastChange = "2017-08-06 14:35:53 +0000";
layers = (
{
layerId = "D5E6A06D-BC18-4D21-A29C-804CFD6A7B96";
paths = (
{
closed = 1;
nodes = (
"49 1476 OFFCURVE",
"37 1463 OFFCURVE",
"37 1446 CURVE SMOOTH",
"37 1164 LINE SMOOTH",
"37 1147 OFFCURVE",
"49 1134 OFFCURVE",
"66 1134 CURVE SMOOTH",
"85 1134 LINE",
"85 -232 LINE SMOOTH",
"85 -249 OFFCURVE",
"100 -263 OFFCURVE",
"117 -263 CURVE SMOOTH",
"402 -263 LINE SMOOTH",
"419 -263 OFFCURVE",
"432 -249 OFFCURVE",
"432 -232 CURVE SMOOTH",
"432 1350 LINE SMOOTH",
"432 1419 OFFCURVE",
"373 1476 OFFCURVE",
"305 1476 CURVE SMOOTH",
"66 1476 LINE SMOOTH"
);
}
);
width = 484;
}
);
note = uni05DF;
unicode = 05DF;
},
{
glyphname = uni05E0;
lastChange = "2017-08-06 14:35:53 +0000";
layers = (
{
layerId = "D5E6A06D-BC18-4D21-A29C-804CFD6A7B96";
paths = (
{
closed = 1;
nodes = (
"80 1476 OFFCURVE",
"64 1461 OFFCURVE",
"64 1442 CURVE SMOOTH",
"64 1118 LINE SMOOTH",
"64 1098 OFFCURVE",
"80 1083 OFFCURVE",
"103 1083 CURVE SMOOTH",
"233 1083 LINE",
"233 474 LINE",
"103 474 LINE SMOOTH",
"80 474 OFFCURVE",
"64 458 OFFCURVE",
"64 438 CURVE SMOOTH",
"64 36 LINE SMOOTH",
"64 15 OFFCURVE",
"80 0 OFFCURVE",
"103 0 CURVE SMOOTH",
"570 0 LINE SMOOTH",
"586 0 OFFCURVE",
"611 8 OFFCURVE",
"611 39 CURVE SMOOTH",
"611 1442 LINE SMOOTH",
"611 1461 OFFCURVE",
"594 1476 OFFCURVE",
"575 1476 CURVE SMOOTH",
"103 1476 LINE SMOOTH"
);
}
);
width = 699;
}
);
note = uni05E0;
unicode = 05E0;
},
{
glyphname = uni05E1;
lastChange = "2017-08-06 14:35:53 +0000";
layers = (
{
layerId = "D5E6A06D-BC18-4D21-A29C-804CFD6A7B96";
paths = (
{
closed = 1;
nodes = (
"53 1476 OFFCURVE",
"36 1459 OFFCURVE",
"36 1438 CURVE SMOOTH",
"36 1132 LINE",
"128 1132 LINE",
"128 372 LINE SMOOTH",
"128 284 OFFCURVE",
"153 194 OFFCURVE",
"206 126 CURVE SMOOTH",
"271 42 OFFCURVE",
"368 0 OFFCURVE",
"498 0 CURVE SMOOTH",
"783 0 LINE SMOOTH",
"871 0 OFFCURVE",
"946 20 OFFCURVE",
"1007 61 CURVE SMOOTH",
"1108 128 OFFCURVE",
"1155 251 OFFCURVE",
"1155 372 CURVE SMOOTH",
"1155 1429 LINE SMOOTH",
"1155 1456 OFFCURVE",
"1133 1476 OFFCURVE",
"1108 1476 CURVE SMOOTH",
"72 1476 LINE SMOOTH"
);
},
{
closed = 1;
nodes = (
"733 441 LINE",
"721 421 OFFCURVE",
"699 411 OFFCURVE",
"674 411 CURVE SMOOTH",
"607 411 LINE SMOOTH",
"583 411 OFFCURVE",
"559 422 OFFCURVE",
"547 441 CURVE",
"547 1112 LINE",
"733 1112 LINE"
);
}
);
width = 1245;
}
);
note = uni05E1;
unicode = 05E1;
},
{
glyphname = uni05E2;
lastChange = "2017-08-06 14:35:53 +0000";
layers = (
{
layerId = "D5E6A06D-BC18-4D21-A29C-804CFD6A7B96";
paths = (
{
closed = 1;
nodes = (
"591 1476 OFFCURVE",
"582 1468 OFFCURVE",
"582 1457 CURVE SMOOTH",
"582 1112 LINE",
"679 1112 LINE",
"679 439 LINE",
"663 419 OFFCURVE",
"643 409 OFFCURVE",
"619 409 CURVE SMOOTH",
"540 409 LINE",
"540 1429 LINE SMOOTH",
"540 1456 OFFCURVE",
"520 1476 OFFCURVE",
"495 1476 CURVE SMOOTH",
"62 1476 LINE SMOOTH",
"51 1476 OFFCURVE",
"43 1468 OFFCURVE",
"43 1457 CURVE SMOOTH",
"43 1112 LINE",
"137 1112 LINE",
"137 409 LINE",
"51 409 LINE SMOOTH",
"40 409 OFFCURVE",
"34 403 OFFCURVE",
"34 390 CURVE SMOOTH",
"34 17 LINE SMOOTH",
"34 6 OFFCURVE",
"40 -2 OFFCURVE",
"51 -2 CURVE SMOOTH",
"726 -2 LINE SMOOTH",
"863 -2 OFFCURVE",
"960 45 OFFCURVE",
"1021 124 CURVE SMOOTH",
"1074 192 OFFCURVE",
"1099 283 OFFCURVE",
"1099 371 CURVE SMOOTH",
"1099 1429 LINE SMOOTH",
"1099 1456 OFFCURVE",
"1079 1476 OFFCURVE",
"1054 1476 CURVE SMOOTH",
"602 1476 LINE SMOOTH"
);
}
);
width = 1161;
}
);
note = uni05E2;
unicode = 05E2;
},
{
glyphname = uni05E3;
lastChange = "2017-08-06 14:35:53 +0000";
layers = (
{
layerId = "D5E6A06D-BC18-4D21-A29C-804CFD6A7B96";
paths = (
{
closed = 1;
nodes = (
"49 1476 OFFCURVE",
"41 1468 OFFCURVE",
"41 1460 CURVE SMOOTH",
"41 1119 LINE",
"97 1119 LINE SMOOTH",
"124 1119 OFFCURVE",
"142 1091 OFFCURVE",
"142 1060 CURVE SMOOTH",
"142 886 LINE SMOOTH",
"142 850 OFFCURVE",
"169 821 OFFCURVE",
"204 821 CURVE SMOOTH",
"392 821 LINE SMOOTH",
"427 821 OFFCURVE",
"454 850 OFFCURVE",
"454 886 CURVE SMOOTH",
"454 1119 LINE",
"673 1119 LINE",
"673 -227 LINE SMOOTH",
"673 -246 OFFCURVE",
"690 -263 OFFCURVE",
"711 -263 CURVE SMOOTH",
"1049 -263 LINE SMOOTH",
"1070 -263 OFFCURVE",
"1087 -246 OFFCURVE",
"1087 -227 CURVE SMOOTH",
"1087 1430 LINE SMOOTH",
"1087 1455 OFFCURVE",
"1067 1476 OFFCURVE",
"1040 1476 CURVE SMOOTH",
"60 1476 LINE SMOOTH"
);
}
);
width = 1152;
}
);
note = uni05E3;
unicode = 05E3;
},
{
glyphname = uni05E4;
lastChange = "2017-08-06 14:35:53 +0000";
layers = (
{
layerId = "D5E6A06D-BC18-4D21-A29C-804CFD6A7B96";
paths = (
{
closed = 1;
nodes = (
"63 1476 OFFCURVE",
"57 1468 OFFCURVE",
"57 1459 CURVE SMOOTH",
"57 1114 LINE",
"115 1114 LINE SMOOTH",
"140 1114 OFFCURVE",
"158 1084 OFFCURVE",
"158 1051 CURVE SMOOTH",
"158 873 LINE SMOOTH",
"158 837 OFFCURVE",
"188 807 OFFCURVE",
"224 807 CURVE SMOOTH",
"413 807 LINE SMOOTH",
"450 807 OFFCURVE",
"480 837 OFFCURVE",
"480 873 CURVE SMOOTH",
"480 1114 LINE",
"703 1114 LINE",
"703 412 LINE",
"687 392 OFFCURVE",
"666 380 OFFCURVE",
"643 380 CURVE SMOOTH",
"74 380 LINE SMOOTH",
"63 380 OFFCURVE",
"57 372 OFFCURVE",
"57 361 CURVE SMOOTH",
"57 17 LINE SMOOTH",
"57 6 OFFCURVE",
"63 -2 OFFCURVE",
"74 -2 CURVE SMOOTH",
"750 -2 LINE SMOOTH",
"839 -2 OFFCURVE",
"915 18 OFFCURVE",
"976 59 CURVE SMOOTH",
"1076 124 OFFCURVE",
"1123 248 OFFCURVE",
"1123 371 CURVE SMOOTH",
"1123 1429 LINE SMOOTH",
"1123 1457 OFFCURVE",
"1105 1476 OFFCURVE",
"1078 1476 CURVE SMOOTH",
"74 1476 LINE SMOOTH"
);
}
);
width = 1200;
}
);
note = uni05E4;
unicode = 05E4;
},
{
glyphname = uni05E5;
lastChange = "2017-08-06 14:35:53 +0000";
layers = (
{
layerId = "D5E6A06D-BC18-4D21-A29C-804CFD6A7B96";
paths = (
{
closed = 1;
nodes = (
"1117 1454 OFFCURVE",
"1096 1477 OFFCURVE",
"1072 1477 CURVE SMOOTH",
"626 1477 LINE SMOOTH",
"621 1477 OFFCURVE",
"616 1475 OFFCURVE",
"611 1471 CURVE",
"608 1466 OFFCURVE",
"606 1461 OFFCURVE",
"606 1458 CURVE SMOOTH",
"606 1117 LINE",
"702 1117 LINE",
"702 1050 LINE",
"696 846 LINE",
"537 1077 LINE",
"537 1430 LINE SMOOTH",
"537 1455 OFFCURVE",
"517 1477 OFFCURVE",
"492 1477 CURVE SMOOTH",
"65 1477 LINE SMOOTH",
"61 1477 OFFCURVE",
"56 1475 OFFCURVE",
"51 1471 CURVE",
"48 1466 OFFCURVE",
"46 1461 OFFCURVE",
"46 1458 CURVE SMOOTH",
"46 1117 LINE",
"138 1117 LINE",
"138 988 LINE",
"369 662 LINE",
"382 -241 LINE SMOOTH",
"382 -264 OFFCURVE",
"398 -280 OFFCURVE",
"421 -280 CURVE SMOOTH",
"717 -280 LINE SMOOTH",
"740 -280 OFFCURVE",
"756 -264 OFFCURVE",
"756 -241 CURVE SMOOTH",
"756 661 LINE",
"877 659 LINE SMOOTH",
"949 659 OFFCURVE",
"1006 681 OFFCURVE",
"1047 726 CURVE SMOOTH",
"1107 794 OFFCURVE",
"1117 877 OFFCURVE",
"1117 946 CURVE SMOOTH",
"1117 1430 LINE SMOOTH"
);
}
);
width = 1178;
}
);
note = uni05E5;
unicode = 05E5;
},
{
glyphname = uni05E6;
lastChange = "2017-08-06 14:35:53 +0000";
layers = (
{
layerId = "D5E6A06D-BC18-4D21-A29C-804CFD6A7B96";
paths = (
{
closed = 1;
nodes = (
"913 680 LINE",
"986 680 OFFCURVE",
"1043 703 OFFCURVE",
"1084 748 CURVE SMOOTH",
"1145 815 OFFCURVE",
"1156 908 OFFCURVE",
"1156 972 CURVE SMOOTH",
"1156 1427 LINE SMOOTH",
"1156 1455 OFFCURVE",
"1136 1475 OFFCURVE",
"1112 1475 CURVE SMOOTH",
"657 1475 LINE SMOOTH",
"655 1475 OFFCURVE",
"653 1474 OFFCURVE",
"650 1473 CURVE SMOOTH",
"647 1472 OFFCURVE",
"645 1471 OFFCURVE",
"643 1471 CURVE",
"638 1467 OFFCURVE",
"634 1461 OFFCURVE",
"634 1453 CURVE SMOOTH",
"634 1108 LINE",
"736 1108 LINE",
"736 874 LINE",
"568 1064 LINE",
"568 1427 LINE SMOOTH",
"568 1455 OFFCURVE",
"550 1475 OFFCURVE",
"519 1475 CURVE SMOOTH",
"86 1475 LINE SMOOTH",
"85 1475 OFFCURVE",
"83 1474 OFFCURVE",
"80 1473 CURVE SMOOTH",
"77 1472 OFFCURVE",
"75 1471 OFFCURVE",
"73 1471 CURVE",
"67 1464 LINE",
"65 1461 OFFCURVE",
"64 1458 OFFCURVE",
"64 1453 CURVE SMOOTH",
"64 1108 LINE",
"161 1108 LINE",
"161 892 LINE",
"621 410 LINE",
"104 410 LINE SMOOTH",
"81 410 OFFCURVE",
"64 393 OFFCURVE",
"64 370 CURVE SMOOTH",
"64 39 LINE SMOOTH",
"64 16 OFFCURVE",
"81 -1 OFFCURVE",
"104 -1 CURVE SMOOTH",
"1116 -1 LINE SMOOTH",
"1139 -1 OFFCURVE",
"1156 16 OFFCURVE",
"1156 39 CURVE SMOOTH",
"1156 437 LINE"
);
}
);
width = 1224;
}
);
note = uni05E6;
unicode = 05E6;
},
{
glyphname = uni05E7;
lastChange = "2017-08-06 14:35:53 +0000";
layers = (
{
layerId = "D5E6A06D-BC18-4D21-A29C-804CFD6A7B96";
paths = (
{
closed = 1;
nodes = (
"66 1476 OFFCURVE",
"61 1469 OFFCURVE",
"61 1460 CURVE SMOOTH",
"61 1094 LINE SMOOTH",
"61 1081 OFFCURVE",
"66 1075 OFFCURVE",
"77 1075 CURVE SMOOTH",
"569 1075 LINE",
"569 734 LINE",
"553 715 OFFCURVE",
"533 705 OFFCURVE",
"508 705 CURVE SMOOTH",
"496 705 LINE SMOOTH",
"487 705 OFFCURVE",
"479 697 OFFCURVE",
"479 686 CURVE SMOOTH",
"479 320 LINE SMOOTH",
"479 311 OFFCURVE",
"487 302 OFFCURVE",
"496 302 CURVE SMOOTH",
"615 302 LINE SMOOTH",
"704 302 OFFCURVE",
"777 322 OFFCURVE",
"836 362 CURVE SMOOTH",
"933 427 OFFCURVE",
"980 547 OFFCURVE",
"980 667 CURVE SMOOTH",
"980 1460 LINE SMOOTH",
"980 1468 OFFCURVE",
"973 1476 OFFCURVE",
"962 1476 CURVE SMOOTH",
"77 1476 LINE SMOOTH"
);
},
{
closed = 1;
nodes = (
"431 138 OFFCURVE",
"416 166 OFFCURVE",
"416 227 CURVE SMOOTH",
"416 891 LINE SMOOTH",
"416 910 OFFCURVE",
"399 925 OFFCURVE",
"378 925 CURVE SMOOTH",
"105 925 LINE SMOOTH",
"85 925 OFFCURVE",
"68 910 OFFCURVE",
"68 891 CURVE SMOOTH",
"68 -227 LINE SMOOTH",
"68 -246 OFFCURVE",
"85 -263 OFFCURVE",
"105 -263 CURVE SMOOTH",
"541 -263 LINE SMOOTH",
"564 -263 OFFCURVE",
"580 -247 OFFCURVE",
"580 -227 CURVE",
"573 -151 OFFCURVE",
"568 -94 OFFCURVE",
"566 -55 CURVE SMOOTH",
"562 7 LINE SMOOTH",
"559 42 OFFCURVE",
"558 71 OFFCURVE",
"558 94 CURVE SMOOTH",
"558 97 OFFCURVE",
"558 99 OFFCURVE",
"559 101 CURVE",
"559 102 OFFCURVE",
"559 103 OFFCURVE",
"559 104 CURVE",
"560 104 OFFCURVE",
"560 104 OFFCURVE",
"560 104 CURVE",
"560 103 OFFCURVE",
"560 103 OFFCURVE",
"560 103 CURVE",
"561 100 OFFCURVE",
"562 99 OFFCURVE",
"562 100 CURVE",
"561 103 OFFCURVE",
"558 108 OFFCURVE",
"554 113 CURVE",
"542 130 OFFCURVE",
"532 138 OFFCURVE",
"524 138 CURVE SMOOTH",
"502 138 LINE SMOOTH"
);
}
);
width = 1052;
}
);
note = uni05E7;
unicode = 05E7;
},
{
glyphname = uni05E8;
lastChange = "2017-08-06 14:35:53 +0000";
layers = (
{
layerId = "D5E6A06D-BC18-4D21-A29C-804CFD6A7B96";
paths = (
{
closed = 1;
nodes = (
"73 1474 OFFCURVE",
"48 1447 OFFCURVE",
"48 1412 CURVE SMOOTH",
"48 1166 LINE SMOOTH",
"48 1131 OFFCURVE",
"73 1106 OFFCURVE",
"108 1106 CURVE SMOOTH",
"620 1106 LINE",
"620 60 LINE SMOOTH",
"620 28 OFFCURVE",
"647 0 OFFCURVE",
"682 0 CURVE SMOOTH",
"933 0 LINE SMOOTH",
"968 0 OFFCURVE",
"995 28 OFFCURVE",
"995 60 CURVE SMOOTH",
"995 1412 LINE SMOOTH",
"995 1447 OFFCURVE",
"968 1474 OFFCURVE",
"933 1474 CURVE SMOOTH",
"108 1474 LINE SMOOTH"
);
}
);
width = 1062;
}
);
note = uni05E8;
unicode = 05E8;
},
{
glyphname = uni05E9;
lastChange = "2017-08-06 14:35:53 +0000";
layers = (
{
layerId = "D5E6A06D-BC18-4D21-A29C-804CFD6A7B96";
paths = (
{
closed = 1;
nodes = (
"1062 1476 OFFCURVE",
"1046 1460 OFFCURVE",
"1046 1437 CURVE SMOOTH",
"1046 1166 LINE",
"1114 1166 LINE",
"1114 430 LINE",
"960 430 LINE",
"960 1437 LINE SMOOTH",
"960 1460 OFFCURVE",
"944 1476 OFFCURVE",
"924 1476 CURVE SMOOTH",
"585 1476 LINE SMOOTH",
"564 1476 OFFCURVE",
"548 1460 OFFCURVE",
"548 1437 CURVE SMOOTH",
"548 1166 LINE",
"596 1166 LINE",
"596 430 LINE",
"462 430 LINE",
"462 1437 LINE SMOOTH",
"462 1460 OFFCURVE",
"448 1476 OFFCURVE",
"427 1476 CURVE SMOOTH",
"67 1476 LINE SMOOTH",
"46 1476 OFFCURVE",
"28 1460 OFFCURVE",
"28 1437 CURVE SMOOTH",
"28 1166 LINE",
"97 1166 LINE",
"97 37 LINE SMOOTH",
"97 16 OFFCURVE",
"113 -2 OFFCURVE",
"132 -2 CURVE SMOOTH",
"1121 -2 LINE SMOOTH",
"1146 -2 OFFCURVE",
"1155 -1 OFFCURVE",
"1168 6 CURVE SMOOTH",
"1177 11 OFFCURVE",
"1189 20 OFFCURVE",
"1205 35 CURVE SMOOTH",
"1221 49 OFFCURVE",
"1232 58 OFFCURVE",
"1237 63 CURVE",
"1240 63 LINE",
"1244 68 OFFCURVE",
"1254 78 OFFCURVE",
"1271 95 CURVE SMOOTH",
"1319 143 LINE",
"1372 195 LINE SMOOTH",
"1393 216 OFFCURVE",
"1408 231 OFFCURVE",
"1416 240 CURVE",
"1428 252 LINE SMOOTH",
"1443 267 OFFCURVE",
"1453 278 OFFCURVE",
"1460 286 CURVE SMOOTH",
"1467 294 OFFCURVE",
"1471 302 OFFCURVE",
"1474 309 CURVE",
"1478 320 OFFCURVE",
"1479 330 OFFCURVE",
"1479 354 CURVE SMOOTH",
"1479 365 OFFCURVE",
"1479 373 OFFCURVE",
"1479 378 CURVE SMOOTH",
"1479 1437 LINE SMOOTH",
"1479 1460 OFFCURVE",
"1463 1476 OFFCURVE",
"1443 1476 CURVE SMOOTH",
"1085 1476 LINE SMOOTH"
);
}
);
width = 1557;
}
);
note = uni05E9;
unicode = 05E9;
},
{
glyphname = uni05EA;
lastChange = "2017-08-06 14:35:53 +0000";
layers = (
{
layerId = "D5E6A06D-BC18-4D21-A29C-804CFD6A7B96";
paths = (
{
closed = 1;
nodes = (
"1148 1472 OFFCURVE",
"1145 1476 OFFCURVE",
"1140 1476 CURVE SMOOTH",
"366 1476 LINE SMOOTH",
"311 1476 OFFCURVE",
"259 1453 OFFCURVE",
"222 1416 CURVE SMOOTH",
"185 1379 OFFCURVE",
"162 1327 OFFCURVE",
"162 1272 CURVE SMOOTH",
"162 460 LINE SMOOTH",
"162 417 OFFCURVE",
"120 388 OFFCURVE",
"83 388 CURVE SMOOTH",
"47 388 LINE",
"47 -2 LINE",
"345 -2 LINE SMOOTH",
"400 -2 OFFCURVE",
"453 21 OFFCURVE",
"490 58 CURVE SMOOTH",
"527 95 OFFCURVE",
"550 147 OFFCURVE",
"550 202 CURVE SMOOTH",
"550 944 LINE SMOOTH",
"550 958 OFFCURVE",
"553 973 OFFCURVE",
"558 988 CURVE SMOOTH",
"569 1018 OFFCURVE",
"599 1069 OFFCURVE",
"648 1069 CURVE SMOOTH",
"767 1069 LINE",
"767 -2 LINE",
"1151 -2 LINE",
"1150 104 OFFCURVE",
"1150 245 OFFCURVE",
"1150 420 CURVE SMOOTH",
"1150 739 LINE",
"1150 974 LINE",
"1149 1017 OFFCURVE",
"1149 1073 OFFCURVE",
"1149 1140 CURVE SMOOTH",
"1149 1256 LINE",
"1149 1337 LINE",
"1149 1401 LINE SMOOTH",
"1149 1428 OFFCURVE",
"1149 1450 OFFCURVE",
"1148 1465 CURVE"
);
}
);
width = 1238;
}
);
note = uni05EA;
unicode = 05EA;
},
